M48
; DRILL file {KiCad (6.0.8)} date Mon Mar 27 20:22:03 2023
; FORMAT={-:-/ absolute / inch / decimal}
; #@! TF.CreationDate,2023-03-27T20:22:03-07:00
; #@! TF.GenerationSoftware,Kicad,Pcbnew,(6.0.8)
; #@! TF.FileFunction,NonPlated,1,2,NPTH
FMAT,2
INCH
; #@! TA.AperFunction,NonPlated,NPTH,ComponentDrill
T1C0.0689
; #@! TA.AperFunction,NonPlated,NPTH,ComponentDrill
T2C0.1570
%
G90
G05
T1
X5.1543Y-1.875
X5.1543Y-2.625
X5.1543Y-3.375
X5.5543Y-1.875
X5.5543Y-2.625
X5.5543Y-3.375
X5.9043Y-1.875
X5.9043Y-2.625
X5.9043Y-3.375
X6.3043Y-1.875
X6.3043Y-2.625
X6.3043Y-3.375
X6.6543Y-1.875
X6.6543Y-2.625
X6.6543Y-3.375
X7.0543Y-1.875
X7.0543Y-2.625
X7.0543Y-3.375
T2
X5.3543Y-1.875
X5.3543Y-2.625
X5.3543Y-3.375
X6.1043Y-1.875
X6.1043Y-2.625
X6.1043Y-3.375
X6.8543Y-1.875
X6.8543Y-2.625
X6.8543Y-3.375
T0
M30
