%TF.GenerationSoftware,KiCad,Pcbnew,(6.0.8)*%
%TF.CreationDate,2022-10-26T00:32:36-07:00*%
%TF.ProjectId,zotzotzotv3,7a6f747a-6f74-47a6-9f74-76332e6b6963,rev?*%
%TF.SameCoordinates,Original*%
%TF.FileFunction,Soldermask,Bot*%
%TF.FilePolarity,Negative*%
%FSLAX46Y46*%
G04 Gerber Fmt 4.6, Leading zero omitted, Abs format (unit mm)*
G04 Created by KiCad (PCBNEW (6.0.8)) date 2022-10-26 00:32:36*
%MOMM*%
%LPD*%
G01*
G04 APERTURE LIST*
G04 Aperture macros list*
%AMRoundRect*
0 Rectangle with rounded corners*
0 $1 Rounding radius*
0 $2 $3 $4 $5 $6 $7 $8 $9 X,Y pos of 4 corners*
0 Add a 4 corners polygon primitive as box body*
4,1,4,$2,$3,$4,$5,$6,$7,$8,$9,$2,$3,0*
0 Add four circle primitives for the rounded corners*
1,1,$1+$1,$2,$3*
1,1,$1+$1,$4,$5*
1,1,$1+$1,$6,$7*
1,1,$1+$1,$8,$9*
0 Add four rect primitives between the rounded corners*
20,1,$1+$1,$2,$3,$4,$5,0*
20,1,$1+$1,$4,$5,$6,$7,0*
20,1,$1+$1,$6,$7,$8,$9,0*
20,1,$1+$1,$8,$9,$2,$3,0*%
G04 Aperture macros list end*
%ADD10C,1.750000*%
%ADD11C,3.987800*%
%ADD12C,2.550000*%
%ADD13C,1.397000*%
%ADD14C,1.524000*%
%ADD15R,1.700000X1.000000*%
%ADD16R,1.200000X0.900000*%
%ADD17RoundRect,0.250000X-0.262500X-0.450000X0.262500X-0.450000X0.262500X0.450000X-0.262500X0.450000X0*%
G04 APERTURE END LIST*
D10*
%TO.C,MX2*%
X8332024Y500000D03*
D11*
X13412024Y500000D03*
D10*
X18492024Y500000D03*
D12*
X9602024Y3040000D03*
X15952024Y5580000D03*
%TD*%
D10*
%TO.C,MX4*%
X37542024Y19550000D03*
X27382024Y19550000D03*
D11*
X32462024Y19550000D03*
D12*
X28652024Y22090000D03*
X35002024Y24630000D03*
%TD*%
D13*
%TO.C,J1*%
X-11297558Y-10881250D03*
X-8757558Y-10881250D03*
X-6217558Y-10881250D03*
X-3677558Y-10881250D03*
%TD*%
D11*
%TO.C,MX5*%
X32462024Y500000D03*
D10*
X27382024Y500000D03*
X37542024Y500000D03*
D12*
X28652024Y3040000D03*
X35002024Y5580000D03*
%TD*%
D11*
%TO.C,MX3*%
X13412024Y-18550000D03*
D10*
X8332024Y-18550000D03*
X18492024Y-18550000D03*
D12*
X9602024Y-16010000D03*
X15952024Y-13470000D03*
%TD*%
D11*
%TO.C,MX7*%
X51512024Y19550000D03*
D10*
X56592024Y19550000D03*
X46432024Y19550000D03*
D12*
X47702024Y22090000D03*
X54052024Y24630000D03*
%TD*%
D10*
%TO.C,MX1*%
X8332024Y19550000D03*
D11*
X13412024Y19550000D03*
D10*
X18492024Y19550000D03*
D12*
X9602024Y22090000D03*
X15952024Y24630000D03*
%TD*%
D10*
%TO.C,MX6*%
X27382024Y-18550000D03*
X37542024Y-18550000D03*
D11*
X32462024Y-18550000D03*
D12*
X28652024Y-16010000D03*
X35002024Y-13470000D03*
%TD*%
D10*
%TO.C,MX8*%
X56592024Y500000D03*
D11*
X51512024Y500000D03*
D10*
X46432024Y500000D03*
D12*
X47702024Y3040000D03*
X54052024Y5580000D03*
%TD*%
D14*
%TO.C,U1*%
X123842Y22896750D03*
X123842Y20356750D03*
X123842Y17816750D03*
X123842Y15276750D03*
X123842Y12736750D03*
X123842Y10196750D03*
X123842Y7656750D03*
X123842Y5116750D03*
X123842Y2576750D03*
X123842Y36750D03*
X123842Y-2503250D03*
X123842Y-5043250D03*
X-15096158Y-5043250D03*
X-15096158Y-2503250D03*
X-15096158Y36750D03*
X-15096158Y2576750D03*
X-15096158Y5116750D03*
X-15096158Y7656750D03*
X-15096158Y10196750D03*
X-15096158Y12736750D03*
X-15096158Y15276750D03*
X-15096158Y17816750D03*
X-15096158Y20356750D03*
X-15096158Y22896750D03*
%TD*%
D10*
%TO.C,MX9*%
X56592024Y-18550000D03*
D11*
X51512024Y-18550000D03*
D10*
X46432024Y-18550000D03*
D12*
X47702024Y-16010000D03*
X54052024Y-13470000D03*
%TD*%
D15*
%TO.C,SW1*%
X-10637558Y-4511250D03*
X-4337558Y-4511250D03*
X-4337558Y-8311250D03*
X-10637558Y-8311250D03*
%TD*%
D16*
%TO.C,D5*%
X29362024Y-4431250D03*
X29362024Y-1131250D03*
%TD*%
%TO.C,D7*%
X10312024Y-23481250D03*
X10312024Y-20181250D03*
%TD*%
%TO.C,D4*%
X10312024Y-4431250D03*
X10312024Y-1131250D03*
%TD*%
D17*
%TO.C,R1*%
X-14400058Y-8681250D03*
X-12575058Y-8681250D03*
%TD*%
D16*
%TO.C,D9*%
X48412024Y-23481250D03*
X48412024Y-20181250D03*
%TD*%
%TO.C,D1*%
X10312024Y14618750D03*
X10312024Y17918750D03*
%TD*%
%TO.C,D6*%
X48412024Y-4431250D03*
X48412024Y-1131250D03*
%TD*%
%TO.C,D2*%
X29362024Y14618750D03*
X29362024Y17918750D03*
%TD*%
%TO.C,D8*%
X29362024Y-23481250D03*
X29362024Y-20181250D03*
%TD*%
%TO.C,D3*%
X48412024Y14618750D03*
X48412024Y17918750D03*
%TD*%
M02*
