M48
; DRILL file {KiCad (6.0.8)} date Mon Mar 27 19:52:21 2023
; FORMAT={-:-/ absolute / inch / decimal}
; #@! TF.CreationDate,2023-03-27T19:52:21-07:00
; #@! TF.GenerationSoftware,Kicad,Pcbnew,(6.0.8)
; #@! TF.FileFunction,Plated,1,2,PTH
FMAT,2
INCH
; #@! TA.AperFunction,Plated,PTH,ViaDrill
T1C0.0157
; #@! TA.AperFunction,Plated,PTH,ComponentDrill
T2C0.0320
; #@! TA.AperFunction,Plated,PTH,ComponentDrill
T3C0.0512
; #@! TA.AperFunction,Plated,PTH,ComponentDrill
T4C0.0579
%
G90
G05
T1
X4.2319Y-2.8785
X4.3351Y-2.9865
X5.2323Y-2.016
X5.2323Y-2.766
X5.2323Y-3.516
X5.9823Y-2.016
X5.9823Y-2.766
X5.9823Y-3.516
X6.7323Y-2.016
X6.7323Y-2.766
X6.7323Y-3.516
T2
X4.2319Y-1.7432
X4.2319Y-1.8432
X4.2319Y-1.9432
X4.2319Y-2.0432
X4.2319Y-2.1432
X4.2319Y-2.2432
X4.2319Y-2.3432
X4.2319Y-2.4432
X4.2319Y-2.5432
X4.2319Y-2.6432
X4.2319Y-2.7432
X4.2319Y-2.8432
X4.2323Y-2.9703
X4.2323Y-3.2065
X4.3815Y-3.0731
X4.4815Y-3.0731
X4.5815Y-3.0731
X4.6815Y-3.0731
X4.8312Y-1.7432
X4.8312Y-1.8432
X4.8312Y-1.9432
X4.8312Y-2.0432
X4.8312Y-2.1432
X4.8312Y-2.2432
X4.8312Y-2.3432
X4.8312Y-2.4432
X4.8312Y-2.5432
X4.8312Y-2.6432
X4.8312Y-2.7432
X4.8312Y-2.8432
X5.2323Y-1.9392
X5.2323Y-2.1754
X5.2323Y-2.6892
X5.2323Y-2.9254
X5.2323Y-3.4392
X5.2323Y-3.6754
X5.9823Y-1.9392
X5.9823Y-2.1754
X5.9823Y-2.6892
X5.9823Y-2.9254
X5.9823Y-3.4392
X5.9823Y-3.6754
X6.7323Y-1.9392
X6.7323Y-2.1754
X6.7323Y-2.6892
X6.7323Y-2.9254
X6.7323Y-3.4392
X6.7323Y-3.6754
T3
X4.8311Y-2.9884
X4.8311Y-3.1884
T4
X5.2043Y-1.775
X5.2043Y-2.525
X5.2043Y-3.275
X5.4543Y-1.675
X5.4543Y-2.425
X5.4543Y-3.175
X5.9543Y-1.775
X5.9543Y-2.525
X5.9543Y-3.275
X6.2043Y-1.675
X6.2043Y-2.425
X6.2043Y-3.175
X6.7043Y-1.775
X6.7043Y-2.525
X6.7043Y-3.275
X6.9543Y-1.675
X6.9543Y-2.425
X6.9543Y-3.175
T0
M30
