%TF.GenerationSoftware,KiCad,Pcbnew,(6.0.8)*%
%TF.CreationDate,2023-03-27T20:22:03-07:00*%
%TF.ProjectId,zotzotzotv3,7a6f747a-6f74-47a6-9f74-76332e6b6963,rev?*%
%TF.SameCoordinates,Original*%
%TF.FileFunction,Legend,Bot*%
%TF.FilePolarity,Positive*%
%FSLAX46Y46*%
G04 Gerber Fmt 4.6, Leading zero omitted, Abs format (unit mm)*
G04 Created by KiCad (PCBNEW (6.0.8)) date 2023-03-27 20:22:03*
%MOMM*%
%LPD*%
G01*
G04 APERTURE LIST*
G04 Aperture macros list*
%AMRoundRect*
0 Rectangle with rounded corners*
0 $1 Rounding radius*
0 $2 $3 $4 $5 $6 $7 $8 $9 X,Y pos of 4 corners*
0 Add a 4 corners polygon primitive as box body*
4,1,4,$2,$3,$4,$5,$6,$7,$8,$9,$2,$3,0*
0 Add four circle primitives for the rounded corners*
1,1,$1+$1,$2,$3*
1,1,$1+$1,$4,$5*
1,1,$1+$1,$6,$7*
1,1,$1+$1,$8,$9*
0 Add four rect primitives between the rounded corners*
20,1,$1+$1,$2,$3,$4,$5,0*
20,1,$1+$1,$4,$5,$6,$7,0*
20,1,$1+$1,$6,$7,$8,$9,0*
20,1,$1+$1,$8,$9,$2,$3,0*%
G04 Aperture macros list end*
%ADD10C,0.150000*%
%ADD11C,0.120000*%
%ADD12RoundRect,0.650000X-0.650000X0.650000X-0.650000X-0.650000X0.650000X-0.650000X0.650000X0.650000X0*%
%ADD13C,2.600000*%
%ADD14C,1.750000*%
%ADD15C,3.987800*%
%ADD16C,2.550000*%
%ADD17R,1.397000X1.778000*%
%ADD18O,1.397000X1.778000*%
%ADD19C,1.397000*%
%ADD20C,1.524000*%
%ADD21R,1.700000X1.000000*%
G04 APERTURE END LIST*
D10*
%TO.C,SW1*%
X-6154225Y-2698511D02*
X-6297082Y-2746130D01*
X-6535178Y-2746130D01*
X-6630416Y-2698511D01*
X-6678035Y-2650892D01*
X-6725654Y-2555654D01*
X-6725654Y-2460416D01*
X-6678035Y-2365178D01*
X-6630416Y-2317559D01*
X-6535178Y-2269940D01*
X-6344701Y-2222321D01*
X-6249463Y-2174702D01*
X-6201844Y-2127083D01*
X-6154225Y-2031845D01*
X-6154225Y-1936607D01*
X-6201844Y-1841369D01*
X-6249463Y-1793750D01*
X-6344701Y-1746130D01*
X-6582797Y-1746130D01*
X-6725654Y-1793750D01*
X-7058987Y-1746130D02*
X-7297082Y-2746130D01*
X-7487558Y-2031845D01*
X-7678035Y-2746130D01*
X-7916130Y-1746130D01*
X-8820892Y-2746130D02*
X-8249463Y-2746130D01*
X-8535178Y-2746130D02*
X-8535178Y-1746130D01*
X-8439939Y-1888988D01*
X-8344701Y-1984226D01*
X-8249463Y-2031845D01*
D11*
X-5787558Y-8711250D02*
X-6237558Y-9161250D01*
X-8737558Y-3661250D02*
X-6237558Y-3661250D01*
X-8737558Y-9161250D02*
X-6237558Y-9161250D01*
X-5787558Y-4111250D02*
X-6237558Y-3661250D01*
X-4737558Y-7411250D02*
X-4737558Y-5411250D01*
X-9187558Y-8711250D02*
X-8737558Y-9161250D01*
X-10237558Y-7411250D02*
X-10237558Y-5411250D01*
X-9187558Y-4111250D02*
X-8737558Y-3661250D01*
%TD*%
%LPC*%
D12*
%TO.C,Reset*%
X122442Y-8731250D03*
D13*
X122442Y-13811250D03*
%TD*%
D14*
%TO.C,MX2*%
X8332024Y500000D03*
D15*
X13412024Y500000D03*
D14*
X18492024Y500000D03*
D16*
X9602024Y3040000D03*
X15952024Y5580000D03*
%TD*%
D17*
%TO.C,D5*%
X29362024Y-7131250D03*
D18*
X29362024Y-1131250D03*
%TD*%
D14*
%TO.C,MX4*%
X37542024Y19550000D03*
X27382024Y19550000D03*
D15*
X32462024Y19550000D03*
D16*
X28652024Y22090000D03*
X35002024Y24630000D03*
%TD*%
D19*
%TO.C,J1*%
X-11297558Y-10881250D03*
X-8757558Y-10881250D03*
X-6217558Y-10881250D03*
X-3677558Y-10881250D03*
%TD*%
D15*
%TO.C,MX5*%
X32462024Y500000D03*
D14*
X27382024Y500000D03*
X37542024Y500000D03*
D16*
X28652024Y3040000D03*
X35002024Y5580000D03*
%TD*%
D15*
%TO.C,MX3*%
X13412024Y-18550000D03*
D14*
X8332024Y-18550000D03*
X18492024Y-18550000D03*
D16*
X9602024Y-16010000D03*
X15952024Y-13470000D03*
%TD*%
D17*
%TO.C,D7*%
X10312024Y-26181250D03*
D18*
X10312024Y-20181250D03*
%TD*%
D17*
%TO.C,D4*%
X10312024Y-7131250D03*
D18*
X10312024Y-1131250D03*
%TD*%
D17*
%TO.C,R1*%
X-15087558Y-14271250D03*
D18*
X-15087558Y-8271250D03*
%TD*%
D17*
%TO.C,D9*%
X48412024Y-26181250D03*
D18*
X48412024Y-20181250D03*
%TD*%
D17*
%TO.C,D1*%
X10312024Y11918750D03*
D18*
X10312024Y17918750D03*
%TD*%
D17*
%TO.C,D6*%
X48412024Y-7131250D03*
D18*
X48412024Y-1131250D03*
%TD*%
D17*
%TO.C,D2*%
X29362024Y11918750D03*
D18*
X29362024Y17918750D03*
%TD*%
D15*
%TO.C,MX7*%
X51512024Y19550000D03*
D14*
X56592024Y19550000D03*
X46432024Y19550000D03*
D16*
X47702024Y22090000D03*
X54052024Y24630000D03*
%TD*%
D14*
%TO.C,MX1*%
X8332024Y19550000D03*
D15*
X13412024Y19550000D03*
D14*
X18492024Y19550000D03*
D16*
X9602024Y22090000D03*
X15952024Y24630000D03*
%TD*%
D17*
%TO.C,D8*%
X29362024Y-26181250D03*
D18*
X29362024Y-20181250D03*
%TD*%
D14*
%TO.C,MX6*%
X27382024Y-18550000D03*
X37542024Y-18550000D03*
D15*
X32462024Y-18550000D03*
D16*
X28652024Y-16010000D03*
X35002024Y-13470000D03*
%TD*%
D14*
%TO.C,MX8*%
X56592024Y500000D03*
D15*
X51512024Y500000D03*
D14*
X46432024Y500000D03*
D16*
X47702024Y3040000D03*
X54052024Y5580000D03*
%TD*%
D20*
%TO.C,U1*%
X123842Y22896750D03*
X123842Y20356750D03*
X123842Y17816750D03*
X123842Y15276750D03*
X123842Y12736750D03*
X123842Y10196750D03*
X123842Y7656750D03*
X123842Y5116750D03*
X123842Y2576750D03*
X123842Y36750D03*
X123842Y-2503250D03*
X123842Y-5043250D03*
X-15096158Y-5043250D03*
X-15096158Y-2503250D03*
X-15096158Y36750D03*
X-15096158Y2576750D03*
X-15096158Y5116750D03*
X-15096158Y7656750D03*
X-15096158Y10196750D03*
X-15096158Y12736750D03*
X-15096158Y15276750D03*
X-15096158Y17816750D03*
X-15096158Y20356750D03*
X-15096158Y22896750D03*
%TD*%
D17*
%TO.C,D3*%
X48412024Y11918750D03*
D18*
X48412024Y17918750D03*
%TD*%
D14*
%TO.C,MX9*%
X56592024Y-18550000D03*
D15*
X51512024Y-18550000D03*
D14*
X46432024Y-18550000D03*
D16*
X47702024Y-16010000D03*
X54052024Y-13470000D03*
%TD*%
D21*
%TO.C,SW1*%
X-10637558Y-8311250D03*
X-4337558Y-8311250D03*
X-4337558Y-4511250D03*
X-10637558Y-4511250D03*
%TD*%
M02*
