M48
; DRILL file {KiCad (6.0.1)} date Wed Sep 21 23:34:09 2022
; FORMAT={-:-/ absolute / inch / decimal}
; #@! TF.CreationDate,2022-09-21T23:34:09-07:00
; #@! TF.GenerationSoftware,Kicad,Pcbnew,(6.0.1)
; #@! TF.FileFunction,Plated,1,2,PTH
FMAT,2
INCH
; #@! TA.AperFunction,Plated,PTH,ComponentDrill
T1C0.0320
; #@! TA.AperFunction,Plated,PTH,ComponentDrill
T2C0.0579
%
G90
G05
T1
X4.3235Y-1.7432
X4.3235Y-1.8432
X4.3235Y-1.9432
X4.3235Y-2.0432
X4.3235Y-2.1432
X4.3235Y-2.2432
X4.3235Y-2.3432
X4.3235Y-2.4432
X4.3235Y-2.5432
X4.3235Y-2.6432
X4.3235Y-2.7432
X4.3235Y-2.8432
X4.9227Y-1.7432
X4.9227Y-1.8432
X4.9227Y-1.9432
X4.9227Y-2.0432
X4.9227Y-2.1432
X4.9227Y-2.2432
X4.9227Y-2.3432
X4.9227Y-2.4432
X4.9227Y-2.5432
X4.9227Y-2.6432
X4.9227Y-2.7432
X4.9227Y-2.8432
T2
X5.2043Y-1.775
X5.2043Y-2.525
X5.2043Y-3.275
X5.4543Y-1.675
X5.4543Y-2.425
X5.4543Y-3.175
X5.9543Y-1.775
X5.9543Y-2.525
X5.9543Y-3.275
X6.2043Y-1.675
X6.2043Y-2.425
X6.2043Y-3.175
X6.7043Y-1.775
X6.7043Y-2.525
X6.7043Y-3.275
X6.9543Y-1.675
X6.9543Y-2.425
X6.9543Y-3.175
T0
M30
