%TF.GenerationSoftware,KiCad,Pcbnew,(6.0.8)*%
%TF.CreationDate,2023-03-27T20:22:03-07:00*%
%TF.ProjectId,zotzotzotv3,7a6f747a-6f74-47a6-9f74-76332e6b6963,rev?*%
%TF.SameCoordinates,Original*%
%TF.FileFunction,Legend,Top*%
%TF.FilePolarity,Positive*%
%FSLAX46Y46*%
G04 Gerber Fmt 4.6, Leading zero omitted, Abs format (unit mm)*
G04 Created by KiCad (PCBNEW (6.0.8)) date 2023-03-27 20:22:03*
%MOMM*%
%LPD*%
G01*
G04 APERTURE LIST*
G04 Aperture macros list*
%AMRoundRect*
0 Rectangle with rounded corners*
0 $1 Rounding radius*
0 $2 $3 $4 $5 $6 $7 $8 $9 X,Y pos of 4 corners*
0 Add a 4 corners polygon primitive as box body*
4,1,4,$2,$3,$4,$5,$6,$7,$8,$9,$2,$3,0*
0 Add four circle primitives for the rounded corners*
1,1,$1+$1,$2,$3*
1,1,$1+$1,$4,$5*
1,1,$1+$1,$6,$7*
1,1,$1+$1,$8,$9*
0 Add four rect primitives between the rounded corners*
20,1,$1+$1,$2,$3,$4,$5,0*
20,1,$1+$1,$4,$5,$6,$7,0*
20,1,$1+$1,$6,$7,$8,$9,0*
20,1,$1+$1,$8,$9,$2,$3,0*%
G04 Aperture macros list end*
%ADD10C,0.200000*%
%ADD11C,0.150000*%
%ADD12C,0.125000*%
%ADD13C,0.120000*%
%ADD14C,1.397000*%
%ADD15RoundRect,0.650000X-0.650000X0.650000X-0.650000X-0.650000X0.650000X-0.650000X0.650000X0.650000X0*%
%ADD16C,2.600000*%
%ADD17C,1.750000*%
%ADD18C,3.987800*%
G04 APERTURE END LIST*
D10*
X-15185328Y-26256654D02*
X-15185328Y-25256654D01*
X-14709138Y-25732845D02*
X-14375804Y-25732845D01*
X-14232947Y-26256654D02*
X-14709138Y-26256654D01*
X-14709138Y-25256654D01*
X-14232947Y-25256654D01*
X-13804376Y-25732845D02*
X-13471042Y-25732845D01*
X-13328185Y-26256654D02*
X-13804376Y-26256654D01*
X-13804376Y-25256654D01*
X-13328185Y-25256654D01*
X-12899614Y-25732845D02*
X-12566280Y-25732845D01*
X-12423423Y-26256654D02*
X-12899614Y-26256654D01*
X-12899614Y-25256654D01*
X-12423423Y-25256654D01*
X-11328185Y-26256654D02*
X-10804376Y-25589988D01*
X-11328185Y-25589988D02*
X-10804376Y-26256654D01*
X-9661519Y-26256654D02*
X-9661519Y-25256654D01*
X-9090090Y-26256654D02*
X-9518661Y-25685226D01*
X-9090090Y-25256654D02*
X-9661519Y-25828083D01*
X-8661519Y-25732845D02*
X-8328185Y-25732845D01*
X-8185328Y-26256654D02*
X-8661519Y-26256654D01*
X-8661519Y-25256654D01*
X-8185328Y-25256654D01*
X-7756757Y-25732845D02*
X-7423423Y-25732845D01*
X-7280566Y-26256654D02*
X-7756757Y-26256654D01*
X-7756757Y-25256654D01*
X-7280566Y-25256654D01*
X-6518661Y-25732845D02*
X-6375804Y-25780464D01*
X-6328185Y-25828083D01*
X-6280566Y-25923321D01*
X-6280566Y-26066178D01*
X-6328185Y-26161416D01*
X-6375804Y-26209035D01*
X-6471042Y-26256654D01*
X-6851995Y-26256654D01*
X-6851995Y-25256654D01*
X-6518661Y-25256654D01*
X-6423423Y-25304274D01*
X-6375804Y-25351893D01*
X-6328185Y-25447131D01*
X-6328185Y-25542369D01*
X-6375804Y-25637607D01*
X-6423423Y-25685226D01*
X-6518661Y-25732845D01*
X-6851995Y-25732845D01*
X-5899614Y-26209035D02*
X-5756757Y-26256654D01*
X-5518661Y-26256654D01*
X-5423423Y-26209035D01*
X-5375804Y-26161416D01*
X-5328185Y-26066178D01*
X-5328185Y-25970940D01*
X-5375804Y-25875702D01*
X-5423423Y-25828083D01*
X-5518661Y-25780464D01*
X-5709138Y-25732845D01*
X-5804376Y-25685226D01*
X-5851995Y-25637607D01*
X-5899614Y-25542369D01*
X-5899614Y-25447131D01*
X-5851995Y-25351893D01*
X-5804376Y-25304274D01*
X-5709138Y-25256654D01*
X-5471042Y-25256654D01*
X-5328185Y-25304274D01*
X-3518661Y-25780464D02*
X-3566280Y-25732845D01*
X-3661519Y-25685226D01*
X-3756757Y-25685226D01*
X-3851995Y-25732845D01*
X-3899614Y-25780464D01*
X-3947233Y-25875702D01*
X-3947233Y-25970940D01*
X-3899614Y-26066178D01*
X-3851995Y-26113797D01*
X-3756757Y-26161416D01*
X-3661519Y-26161416D01*
X-3566280Y-26113797D01*
X-3518661Y-26066178D01*
X-3518661Y-25685226D02*
X-3518661Y-26066178D01*
X-3471042Y-26113797D01*
X-3423423Y-26113797D01*
X-3328185Y-26066178D01*
X-3280566Y-25970940D01*
X-3280566Y-25732845D01*
X-3375804Y-25589988D01*
X-3518661Y-25494750D01*
X-3709138Y-25447131D01*
X-3899614Y-25494750D01*
X-4042471Y-25589988D01*
X-4137709Y-25732845D01*
X-4185328Y-25923321D01*
X-4137709Y-26113797D01*
X-4042471Y-26256654D01*
X-3899614Y-26351893D01*
X-3709138Y-26399512D01*
X-3518661Y-26351893D01*
X-3375804Y-26256654D01*
X-2090090Y-25256654D02*
X-2090090Y-26066178D01*
X-2042471Y-26161416D01*
X-1994852Y-26209035D01*
X-1899614Y-26256654D01*
X-1709138Y-26256654D01*
X-1613899Y-26209035D01*
X-1566280Y-26161416D01*
X-1518661Y-26066178D01*
X-1518661Y-25256654D01*
X-471042Y-26161416D02*
X-518661Y-26209035D01*
X-661519Y-26256654D01*
X-756757Y-26256654D01*
X-899614Y-26209035D01*
X-994852Y-26113797D01*
X-1042471Y-26018559D01*
X-1090090Y-25828083D01*
X-1090090Y-25685226D01*
X-1042471Y-25494750D01*
X-994852Y-25399512D01*
X-899614Y-25304274D01*
X-756757Y-25256654D01*
X-661519Y-25256654D01*
X-518661Y-25304274D01*
X-471042Y-25351893D01*
X-42471Y-26256654D02*
X-42471Y-25256654D01*
D11*
%TO.C,Reset*%
X2964822Y-12509345D02*
X2488632Y-12842678D01*
X2964822Y-13080773D02*
X1964822Y-13080773D01*
X1964822Y-12699821D01*
X2012442Y-12604583D01*
X2060061Y-12556964D01*
X2155299Y-12509345D01*
X2298156Y-12509345D01*
X2393394Y-12556964D01*
X2441013Y-12604583D01*
X2488632Y-12699821D01*
X2488632Y-13080773D01*
X2917203Y-11699821D02*
X2964822Y-11795059D01*
X2964822Y-11985535D01*
X2917203Y-12080773D01*
X2821965Y-12128392D01*
X2441013Y-12128392D01*
X2345775Y-12080773D01*
X2298156Y-11985535D01*
X2298156Y-11795059D01*
X2345775Y-11699821D01*
X2441013Y-11652202D01*
X2536251Y-11652202D01*
X2631489Y-12128392D01*
X2917203Y-11271250D02*
X2964822Y-11176011D01*
X2964822Y-10985535D01*
X2917203Y-10890297D01*
X2821965Y-10842678D01*
X2774346Y-10842678D01*
X2679108Y-10890297D01*
X2631489Y-10985535D01*
X2631489Y-11128392D01*
X2583870Y-11223630D01*
X2488632Y-11271250D01*
X2441013Y-11271250D01*
X2345775Y-11223630D01*
X2298156Y-11128392D01*
X2298156Y-10985535D01*
X2345775Y-10890297D01*
X2917203Y-10033154D02*
X2964822Y-10128392D01*
X2964822Y-10318869D01*
X2917203Y-10414107D01*
X2821965Y-10461726D01*
X2441013Y-10461726D01*
X2345775Y-10414107D01*
X2298156Y-10318869D01*
X2298156Y-10128392D01*
X2345775Y-10033154D01*
X2441013Y-9985535D01*
X2536251Y-9985535D01*
X2631489Y-10461726D01*
X2298156Y-9699821D02*
X2298156Y-9318869D01*
X1964822Y-9556964D02*
X2821965Y-9556964D01*
X2917203Y-9509345D01*
X2964822Y-9414107D01*
X2964822Y-9318869D01*
%TO.C,J1*%
X-8939939Y-8783630D02*
X-8749463Y-8783630D01*
X-8654225Y-8831250D01*
X-8558987Y-8926488D01*
X-8511368Y-9116964D01*
X-8511368Y-9450297D01*
X-8558987Y-9640773D01*
X-8654225Y-9736011D01*
X-8749463Y-9783630D01*
X-8939939Y-9783630D01*
X-9035178Y-9736011D01*
X-9130416Y-9640773D01*
X-9178035Y-9450297D01*
X-9178035Y-9116964D01*
X-9130416Y-8926488D01*
X-9035178Y-8831250D01*
X-8939939Y-8783630D01*
X-7606606Y-9783630D02*
X-8082797Y-9783630D01*
X-8082797Y-8783630D01*
X-7273273Y-9259821D02*
X-6939939Y-9259821D01*
X-6797082Y-9783630D02*
X-7273273Y-9783630D01*
X-7273273Y-8783630D01*
X-6797082Y-8783630D01*
X-6368511Y-9783630D02*
X-6368511Y-8783630D01*
X-6130416Y-8783630D01*
X-5987558Y-8831250D01*
X-5892320Y-8926488D01*
X-5844701Y-9021726D01*
X-5797082Y-9212202D01*
X-5797082Y-9355059D01*
X-5844701Y-9545535D01*
X-5892320Y-9640773D01*
X-5987558Y-9736011D01*
X-6130416Y-9783630D01*
X-6368511Y-9783630D01*
%TO.C,R1*%
X-14635178Y-11437916D02*
X-15111368Y-11771250D01*
X-14635178Y-12009345D02*
X-15635178Y-12009345D01*
X-15635178Y-11628392D01*
X-15587558Y-11533154D01*
X-15539939Y-11485535D01*
X-15444701Y-11437916D01*
X-15301844Y-11437916D01*
X-15206606Y-11485535D01*
X-15158987Y-11533154D01*
X-15111368Y-11628392D01*
X-15111368Y-12009345D01*
X-14635178Y-10485535D02*
X-14635178Y-11056964D01*
X-14635178Y-10771250D02*
X-15635178Y-10771250D01*
X-15492320Y-10866488D01*
X-15397082Y-10961726D01*
X-15349463Y-11056964D01*
D12*
%TO.C,U1*%
X-12945178Y22579465D02*
X-13168511Y22936608D01*
X-13328035Y22579465D02*
X-13328035Y23329465D01*
X-13072797Y23329465D01*
X-13008987Y23293750D01*
X-12977082Y23258036D01*
X-12945178Y23186608D01*
X-12945178Y23079465D01*
X-12977082Y23008036D01*
X-13008987Y22972322D01*
X-13072797Y22936608D01*
X-13328035Y22936608D01*
X-12689939Y22793750D02*
X-12370892Y22793750D01*
X-12753749Y22579465D02*
X-12530416Y23329465D01*
X-12307082Y22579465D01*
X-12147558Y23329465D02*
X-11988035Y22579465D01*
X-11860416Y23115179D01*
X-11732797Y22579465D01*
X-11573273Y23329465D01*
X-13015178Y-320535D02*
X-13398035Y-320535D01*
X-13206606Y-320535D02*
X-13206606Y429465D01*
X-13270416Y322322D01*
X-13334225Y250893D01*
X-13398035Y215179D01*
X-12440892Y179465D02*
X-12440892Y-320535D01*
X-12600416Y465179D02*
X-12759939Y-70535D01*
X-12345178Y-70535D01*
X-11611368Y465179D02*
X-12185654Y-499107D01*
X-11164701Y72322D02*
X-11068987Y36608D01*
X-11037082Y893D01*
X-11005178Y-70535D01*
X-11005178Y-177678D01*
X-11037082Y-249107D01*
X-11068987Y-284821D01*
X-11132797Y-320535D01*
X-11388035Y-320535D01*
X-11388035Y429465D01*
X-11164701Y429465D01*
X-11100892Y393750D01*
X-11068987Y358036D01*
X-11037082Y286608D01*
X-11037082Y215179D01*
X-11068987Y143750D01*
X-11100892Y108036D01*
X-11164701Y72322D01*
X-11388035Y72322D01*
X-10781844Y429465D02*
X-10367082Y429465D01*
X-10590416Y143750D01*
X-10494701Y143750D01*
X-10430892Y108036D01*
X-10398987Y72322D01*
X-10367082Y893D01*
X-10367082Y-177678D01*
X-10398987Y-249107D01*
X-10430892Y-284821D01*
X-10494701Y-320535D01*
X-10686130Y-320535D01*
X-10749939Y-284821D01*
X-10781844Y-249107D01*
D13*
X-9983987Y25329465D02*
X-9983987Y26079465D01*
X-9733987Y25543750D01*
X-9483987Y26079465D01*
X-9483987Y25329465D01*
X-9126844Y25329465D02*
X-9126844Y25829465D01*
X-9126844Y26079465D02*
X-9162558Y26043750D01*
X-9126844Y26008036D01*
X-9091130Y26043750D01*
X-9126844Y26079465D01*
X-9126844Y26008036D01*
X-8448273Y25365179D02*
X-8519701Y25329465D01*
X-8662558Y25329465D01*
X-8733987Y25365179D01*
X-8769701Y25400893D01*
X-8805416Y25472322D01*
X-8805416Y25686608D01*
X-8769701Y25758036D01*
X-8733987Y25793750D01*
X-8662558Y25829465D01*
X-8519701Y25829465D01*
X-8448273Y25793750D01*
X-8126844Y25329465D02*
X-8126844Y25829465D01*
X-8126844Y25686608D02*
X-8091130Y25758036D01*
X-8055416Y25793750D01*
X-7983987Y25829465D01*
X-7912558Y25829465D01*
X-7555416Y25329465D02*
X-7626844Y25365179D01*
X-7662558Y25400893D01*
X-7698273Y25472322D01*
X-7698273Y25686608D01*
X-7662558Y25758036D01*
X-7626844Y25793750D01*
X-7555416Y25829465D01*
X-7448273Y25829465D01*
X-7376844Y25793750D01*
X-7341130Y25758036D01*
X-7305416Y25686608D01*
X-7305416Y25472322D01*
X-7341130Y25400893D01*
X-7376844Y25365179D01*
X-7448273Y25329465D01*
X-7555416Y25329465D01*
X-6983987Y26079465D02*
X-6983987Y25472322D01*
X-6948273Y25400893D01*
X-6912558Y25365179D01*
X-6841130Y25329465D01*
X-6698273Y25329465D01*
X-6626844Y25365179D01*
X-6591130Y25400893D01*
X-6555416Y25472322D01*
X-6555416Y26079465D01*
X-6233987Y25365179D02*
X-6126844Y25329465D01*
X-5948273Y25329465D01*
X-5876844Y25365179D01*
X-5841130Y25400893D01*
X-5805416Y25472322D01*
X-5805416Y25543750D01*
X-5841130Y25615179D01*
X-5876844Y25650893D01*
X-5948273Y25686608D01*
X-6091130Y25722322D01*
X-6162558Y25758036D01*
X-6198273Y25793750D01*
X-6233987Y25865179D01*
X-6233987Y25936608D01*
X-6198273Y26008036D01*
X-6162558Y26043750D01*
X-6091130Y26079465D01*
X-5912558Y26079465D01*
X-5805416Y26043750D01*
X-5233987Y25722322D02*
X-5126844Y25686608D01*
X-5091130Y25650893D01*
X-5055416Y25579465D01*
X-5055416Y25472322D01*
X-5091130Y25400893D01*
X-5126844Y25365179D01*
X-5198273Y25329465D01*
X-5483987Y25329465D01*
X-5483987Y26079465D01*
X-5233987Y26079465D01*
X-5162558Y26043750D01*
X-5126844Y26008036D01*
X-5091130Y25936608D01*
X-5091130Y25865179D01*
X-5126844Y25793750D01*
X-5162558Y25758036D01*
X-5233987Y25722322D01*
X-5483987Y25722322D01*
D12*
X-12849463Y17479465D02*
X-13072797Y17836608D01*
X-13232320Y17479465D02*
X-13232320Y18229465D01*
X-12977082Y18229465D01*
X-12913273Y18193750D01*
X-12881368Y18158036D01*
X-12849463Y18086608D01*
X-12849463Y17979465D01*
X-12881368Y17908036D01*
X-12913273Y17872322D01*
X-12977082Y17836608D01*
X-13232320Y17836608D01*
X-12594225Y17515179D02*
X-12498511Y17479465D01*
X-12338987Y17479465D01*
X-12275178Y17515179D01*
X-12243273Y17550893D01*
X-12211368Y17622322D01*
X-12211368Y17693750D01*
X-12243273Y17765179D01*
X-12275178Y17800893D01*
X-12338987Y17836608D01*
X-12466606Y17872322D01*
X-12530416Y17908036D01*
X-12562320Y17943750D01*
X-12594225Y18015179D01*
X-12594225Y18086608D01*
X-12562320Y18158036D01*
X-12530416Y18193750D01*
X-12466606Y18229465D01*
X-12307082Y18229465D01*
X-12211368Y18193750D01*
X-12019939Y18229465D02*
X-11637082Y18229465D01*
X-11828511Y17479465D02*
X-11828511Y18229465D01*
X-3947082Y2379465D02*
X-3947082Y3129465D01*
X-3787558Y3129465D01*
X-3691844Y3093750D01*
X-3628035Y3022322D01*
X-3596130Y2950893D01*
X-3564225Y2808036D01*
X-3564225Y2700893D01*
X-3596130Y2558036D01*
X-3628035Y2486608D01*
X-3691844Y2415179D01*
X-3787558Y2379465D01*
X-3947082Y2379465D01*
X-3340892Y3129465D02*
X-2894225Y3129465D01*
X-3181368Y2379465D01*
X-2160416Y3165179D02*
X-2734701Y2200893D01*
X-1649939Y3129465D02*
X-1777558Y3129465D01*
X-1841368Y3093750D01*
X-1873273Y3058036D01*
X-1937082Y2950893D01*
X-1968987Y2808036D01*
X-1968987Y2522322D01*
X-1937082Y2450893D01*
X-1905178Y2415179D01*
X-1841368Y2379465D01*
X-1713749Y2379465D01*
X-1649939Y2415179D01*
X-1618035Y2450893D01*
X-1586130Y2522322D01*
X-1586130Y2700893D01*
X-1618035Y2772322D01*
X-1649939Y2808036D01*
X-1713749Y2843750D01*
X-1841368Y2843750D01*
X-1905178Y2808036D01*
X-1937082Y2772322D01*
X-1968987Y2700893D01*
X-13015178Y2229465D02*
X-13398035Y2229465D01*
X-13206606Y2229465D02*
X-13206606Y2979465D01*
X-13270416Y2872322D01*
X-13334225Y2800893D01*
X-13398035Y2765179D01*
X-12408987Y2979465D02*
X-12728035Y2979465D01*
X-12759939Y2622322D01*
X-12728035Y2658036D01*
X-12664225Y2693750D01*
X-12504701Y2693750D01*
X-12440892Y2658036D01*
X-12408987Y2622322D01*
X-12377082Y2550893D01*
X-12377082Y2372322D01*
X-12408987Y2300893D01*
X-12440892Y2265179D01*
X-12504701Y2229465D01*
X-12664225Y2229465D01*
X-12728035Y2265179D01*
X-12759939Y2300893D01*
X-11611368Y3015179D02*
X-12185654Y2050893D01*
X-11164701Y2622322D02*
X-11068987Y2586608D01*
X-11037082Y2550893D01*
X-11005178Y2479465D01*
X-11005178Y2372322D01*
X-11037082Y2300893D01*
X-11068987Y2265179D01*
X-11132797Y2229465D01*
X-11388035Y2229465D01*
X-11388035Y2979465D01*
X-11164701Y2979465D01*
X-11100892Y2943750D01*
X-11068987Y2908036D01*
X-11037082Y2836608D01*
X-11037082Y2765179D01*
X-11068987Y2693750D01*
X-11100892Y2658036D01*
X-11164701Y2622322D01*
X-11388035Y2622322D01*
X-10367082Y2229465D02*
X-10749939Y2229465D01*
X-10558511Y2229465D02*
X-10558511Y2979465D01*
X-10622320Y2872322D01*
X-10686130Y2800893D01*
X-10749939Y2765179D01*
X-5071368Y22529465D02*
X-5071368Y23279465D01*
X-4911844Y23279465D01*
X-4816130Y23243750D01*
X-4752320Y23172322D01*
X-4720416Y23100893D01*
X-4688511Y22958036D01*
X-4688511Y22850893D01*
X-4720416Y22708036D01*
X-4752320Y22636608D01*
X-4816130Y22565179D01*
X-4911844Y22529465D01*
X-5071368Y22529465D01*
X-4465178Y23279465D02*
X-4050416Y23279465D01*
X-4273749Y22993750D01*
X-4178035Y22993750D01*
X-4114225Y22958036D01*
X-4082320Y22922322D01*
X-4050416Y22850893D01*
X-4050416Y22672322D01*
X-4082320Y22600893D01*
X-4114225Y22565179D01*
X-4178035Y22529465D01*
X-4369463Y22529465D01*
X-4433273Y22565179D01*
X-4465178Y22600893D01*
X-3284701Y23315179D02*
X-3858987Y22350893D01*
X-3157082Y23279465D02*
X-2774225Y23279465D01*
X-2965654Y22529465D02*
X-2965654Y23279465D01*
X-2614701Y23279465D02*
X-2168035Y22529465D01*
X-2168035Y23279465D02*
X-2614701Y22529465D01*
X-1785178Y23279465D02*
X-1721368Y23279465D01*
X-1657558Y23243750D01*
X-1625654Y23208036D01*
X-1593749Y23136608D01*
X-1561844Y22993750D01*
X-1561844Y22815179D01*
X-1593749Y22672322D01*
X-1625654Y22600893D01*
X-1657558Y22565179D01*
X-1721368Y22529465D01*
X-1785178Y22529465D01*
X-1848987Y22565179D01*
X-1880892Y22600893D01*
X-1912797Y22672322D01*
X-1944701Y22815179D01*
X-1944701Y22993750D01*
X-1912797Y23136608D01*
X-1880892Y23208036D01*
X-1848987Y23243750D01*
X-1785178Y23279465D01*
X-6521130Y12515179D02*
X-6425416Y12479465D01*
X-6265892Y12479465D01*
X-6202082Y12515179D01*
X-6170178Y12550893D01*
X-6138273Y12622322D01*
X-6138273Y12693750D01*
X-6170178Y12765179D01*
X-6202082Y12800893D01*
X-6265892Y12836608D01*
X-6393511Y12872322D01*
X-6457320Y12908036D01*
X-6489225Y12943750D01*
X-6521130Y13015179D01*
X-6521130Y13086608D01*
X-6489225Y13158036D01*
X-6457320Y13193750D01*
X-6393511Y13229465D01*
X-6233987Y13229465D01*
X-6138273Y13193750D01*
X-5851130Y12479465D02*
X-5851130Y13229465D01*
X-5691606Y13229465D01*
X-5595892Y13193750D01*
X-5532082Y13122322D01*
X-5500178Y13050893D01*
X-5468273Y12908036D01*
X-5468273Y12800893D01*
X-5500178Y12658036D01*
X-5532082Y12586608D01*
X-5595892Y12515179D01*
X-5691606Y12479465D01*
X-5851130Y12479465D01*
X-5213035Y12693750D02*
X-4893987Y12693750D01*
X-5276844Y12479465D02*
X-5053511Y13229465D01*
X-4830178Y12479465D01*
X-4128273Y13265179D02*
X-4702558Y12300893D01*
X-3904939Y12479465D02*
X-3904939Y13229465D01*
X-3745416Y13229465D01*
X-3649701Y13193750D01*
X-3585892Y13122322D01*
X-3553987Y13050893D01*
X-3522082Y12908036D01*
X-3522082Y12800893D01*
X-3553987Y12658036D01*
X-3585892Y12586608D01*
X-3649701Y12515179D01*
X-3745416Y12479465D01*
X-3904939Y12479465D01*
X-2883987Y12479465D02*
X-3266844Y12479465D01*
X-3075416Y12479465D02*
X-3075416Y13229465D01*
X-3139225Y13122322D01*
X-3203035Y13050893D01*
X-3266844Y13015179D01*
X-2118273Y13265179D02*
X-2692558Y12300893D01*
X-1926844Y13158036D02*
X-1894939Y13193750D01*
X-1831130Y13229465D01*
X-1671606Y13229465D01*
X-1607797Y13193750D01*
X-1575892Y13158036D01*
X-1543987Y13086608D01*
X-1543987Y13015179D01*
X-1575892Y12908036D01*
X-1958749Y12479465D01*
X-1543987Y12479465D01*
X-13015178Y-5370535D02*
X-13398035Y-5370535D01*
X-13206606Y-5370535D02*
X-13206606Y-4620535D01*
X-13270416Y-4727678D01*
X-13334225Y-4799107D01*
X-13398035Y-4834821D01*
X-12600416Y-4620535D02*
X-12536606Y-4620535D01*
X-12472797Y-4656250D01*
X-12440892Y-4691964D01*
X-12408987Y-4763392D01*
X-12377082Y-4906250D01*
X-12377082Y-5084821D01*
X-12408987Y-5227678D01*
X-12440892Y-5299107D01*
X-12472797Y-5334821D01*
X-12536606Y-5370535D01*
X-12600416Y-5370535D01*
X-12664225Y-5334821D01*
X-12696130Y-5299107D01*
X-12728035Y-5227678D01*
X-12759939Y-5084821D01*
X-12759939Y-4906250D01*
X-12728035Y-4763392D01*
X-12696130Y-4691964D01*
X-12664225Y-4656250D01*
X-12600416Y-4620535D01*
X-11611368Y-4584821D02*
X-12185654Y-5549107D01*
X-11164701Y-4977678D02*
X-11068987Y-5013392D01*
X-11037082Y-5049107D01*
X-11005178Y-5120535D01*
X-11005178Y-5227678D01*
X-11037082Y-5299107D01*
X-11068987Y-5334821D01*
X-11132797Y-5370535D01*
X-11388035Y-5370535D01*
X-11388035Y-4620535D01*
X-11164701Y-4620535D01*
X-11100892Y-4656250D01*
X-11068987Y-4691964D01*
X-11037082Y-4763392D01*
X-11037082Y-4834821D01*
X-11068987Y-4906250D01*
X-11100892Y-4941964D01*
X-11164701Y-4977678D01*
X-11388035Y-4977678D01*
X-10430892Y-4620535D02*
X-10558511Y-4620535D01*
X-10622320Y-4656250D01*
X-10654225Y-4691964D01*
X-10718035Y-4799107D01*
X-10749939Y-4941964D01*
X-10749939Y-5227678D01*
X-10718035Y-5299107D01*
X-10686130Y-5334821D01*
X-10622320Y-5370535D01*
X-10494701Y-5370535D01*
X-10430892Y-5334821D01*
X-10398987Y-5299107D01*
X-10367082Y-5227678D01*
X-10367082Y-5049107D01*
X-10398987Y-4977678D01*
X-10430892Y-4941964D01*
X-10494701Y-4906250D01*
X-10622320Y-4906250D01*
X-10686130Y-4941964D01*
X-10718035Y-4977678D01*
X-10749939Y-5049107D01*
X-13318273Y12543750D02*
X-12999225Y12543750D01*
X-13382082Y12329465D02*
X-13158749Y13079465D01*
X-12935416Y12329465D01*
X-12775892Y13079465D02*
X-12361130Y13079465D01*
X-12584463Y12793750D01*
X-12488749Y12793750D01*
X-12424939Y12758036D01*
X-12393035Y12722322D01*
X-12361130Y12650893D01*
X-12361130Y12472322D01*
X-12393035Y12400893D01*
X-12424939Y12365179D01*
X-12488749Y12329465D01*
X-12680178Y12329465D01*
X-12743987Y12365179D01*
X-12775892Y12400893D01*
X-11595416Y13115179D02*
X-12169701Y12150893D01*
X-11148749Y12722322D02*
X-11372082Y12722322D01*
X-11372082Y12329465D02*
X-11372082Y13079465D01*
X-11053035Y13079465D01*
X-10510654Y12829465D02*
X-10510654Y12329465D01*
X-10670178Y13115179D02*
X-10829701Y12579465D01*
X-10414939Y12579465D01*
X-13318273Y4993750D02*
X-12999225Y4993750D01*
X-13382082Y4779465D02*
X-13158749Y5529465D01*
X-12935416Y4779465D01*
X-12584463Y5529465D02*
X-12520654Y5529465D01*
X-12456844Y5493750D01*
X-12424939Y5458036D01*
X-12393035Y5386608D01*
X-12361130Y5243750D01*
X-12361130Y5065179D01*
X-12393035Y4922322D01*
X-12424939Y4850893D01*
X-12456844Y4815179D01*
X-12520654Y4779465D01*
X-12584463Y4779465D01*
X-12648273Y4815179D01*
X-12680178Y4850893D01*
X-12712082Y4922322D01*
X-12743987Y5065179D01*
X-12743987Y5243750D01*
X-12712082Y5386608D01*
X-12680178Y5458036D01*
X-12648273Y5493750D01*
X-12584463Y5529465D01*
X-11595416Y5565179D02*
X-12169701Y4600893D01*
X-11148749Y5172322D02*
X-11372082Y5172322D01*
X-11372082Y4779465D02*
X-11372082Y5529465D01*
X-11053035Y5529465D01*
X-10861606Y5529465D02*
X-10414939Y5529465D01*
X-10702082Y4779465D01*
X-3043035Y18143750D02*
X-3106844Y18179465D01*
X-3202558Y18179465D01*
X-3298273Y18143750D01*
X-3362082Y18072322D01*
X-3393987Y18000893D01*
X-3425892Y17858036D01*
X-3425892Y17750893D01*
X-3393987Y17608036D01*
X-3362082Y17536608D01*
X-3298273Y17465179D01*
X-3202558Y17429465D01*
X-3138749Y17429465D01*
X-3043035Y17465179D01*
X-3011130Y17500893D01*
X-3011130Y17750893D01*
X-3138749Y17750893D01*
X-2723987Y17429465D02*
X-2723987Y18179465D01*
X-2341130Y17429465D01*
X-2341130Y18179465D01*
X-2022082Y17429465D02*
X-2022082Y18179465D01*
X-1862558Y18179465D01*
X-1766844Y18143750D01*
X-1703035Y18072322D01*
X-1671130Y18000893D01*
X-1639225Y17858036D01*
X-1639225Y17750893D01*
X-1671130Y17608036D01*
X-1703035Y17536608D01*
X-1766844Y17465179D01*
X-1862558Y17429465D01*
X-2022082Y17429465D01*
X-3564225Y5000893D02*
X-3596130Y4965179D01*
X-3691844Y4929465D01*
X-3755654Y4929465D01*
X-3851368Y4965179D01*
X-3915178Y5036608D01*
X-3947082Y5108036D01*
X-3978987Y5250893D01*
X-3978987Y5358036D01*
X-3947082Y5500893D01*
X-3915178Y5572322D01*
X-3851368Y5643750D01*
X-3755654Y5679465D01*
X-3691844Y5679465D01*
X-3596130Y5643750D01*
X-3564225Y5608036D01*
X-2989939Y5679465D02*
X-3117558Y5679465D01*
X-3181368Y5643750D01*
X-3213273Y5608036D01*
X-3277082Y5500893D01*
X-3308987Y5358036D01*
X-3308987Y5072322D01*
X-3277082Y5000893D01*
X-3245178Y4965179D01*
X-3181368Y4929465D01*
X-3053749Y4929465D01*
X-2989939Y4965179D01*
X-2958035Y5000893D01*
X-2926130Y5072322D01*
X-2926130Y5250893D01*
X-2958035Y5322322D01*
X-2989939Y5358036D01*
X-3053749Y5393750D01*
X-3181368Y5393750D01*
X-3245178Y5358036D01*
X-3277082Y5322322D01*
X-3308987Y5250893D01*
X-2160416Y5715179D02*
X-2734701Y4750893D01*
X-1618035Y5679465D02*
X-1937082Y5679465D01*
X-1968987Y5322322D01*
X-1937082Y5358036D01*
X-1873273Y5393750D01*
X-1713749Y5393750D01*
X-1649939Y5358036D01*
X-1618035Y5322322D01*
X-1586130Y5250893D01*
X-1586130Y5072322D01*
X-1618035Y5000893D01*
X-1649939Y4965179D01*
X-1713749Y4929465D01*
X-1873273Y4929465D01*
X-1937082Y4965179D01*
X-1968987Y5000893D01*
X-13375892Y15779465D02*
X-13152558Y15029465D01*
X-12929225Y15779465D01*
X-12323035Y15100893D02*
X-12354939Y15065179D01*
X-12450654Y15029465D01*
X-12514463Y15029465D01*
X-12610178Y15065179D01*
X-12673987Y15136608D01*
X-12705892Y15208036D01*
X-12737797Y15350893D01*
X-12737797Y15458036D01*
X-12705892Y15600893D01*
X-12673987Y15672322D01*
X-12610178Y15743750D01*
X-12514463Y15779465D01*
X-12450654Y15779465D01*
X-12354939Y15743750D01*
X-12323035Y15708036D01*
X-11653035Y15100893D02*
X-11684939Y15065179D01*
X-11780654Y15029465D01*
X-11844463Y15029465D01*
X-11940178Y15065179D01*
X-12003987Y15136608D01*
X-12035892Y15208036D01*
X-12067797Y15350893D01*
X-12067797Y15458036D01*
X-12035892Y15600893D01*
X-12003987Y15672322D01*
X-11940178Y15743750D01*
X-11844463Y15779465D01*
X-11780654Y15779465D01*
X-11684939Y15743750D01*
X-11653035Y15708036D01*
X-13318273Y10043750D02*
X-12999225Y10043750D01*
X-13382082Y9829465D02*
X-13158749Y10579465D01*
X-12935416Y9829465D01*
X-12743987Y10508036D02*
X-12712082Y10543750D01*
X-12648273Y10579465D01*
X-12488749Y10579465D01*
X-12424939Y10543750D01*
X-12393035Y10508036D01*
X-12361130Y10436608D01*
X-12361130Y10365179D01*
X-12393035Y10258036D01*
X-12775892Y9829465D01*
X-12361130Y9829465D01*
X-11595416Y10615179D02*
X-12169701Y9650893D01*
X-11148749Y10222322D02*
X-11372082Y10222322D01*
X-11372082Y9829465D02*
X-11372082Y10579465D01*
X-11053035Y10579465D01*
X-10478749Y10579465D02*
X-10797797Y10579465D01*
X-10829701Y10222322D01*
X-10797797Y10258036D01*
X-10733987Y10293750D01*
X-10574463Y10293750D01*
X-10510654Y10258036D01*
X-10478749Y10222322D01*
X-10446844Y10150893D01*
X-10446844Y9972322D01*
X-10478749Y9900893D01*
X-10510654Y9865179D01*
X-10574463Y9829465D01*
X-10733987Y9829465D01*
X-10797797Y9865179D01*
X-10829701Y9900893D01*
X-12993035Y20743750D02*
X-13056844Y20779465D01*
X-13152558Y20779465D01*
X-13248273Y20743750D01*
X-13312082Y20672322D01*
X-13343987Y20600893D01*
X-13375892Y20458036D01*
X-13375892Y20350893D01*
X-13343987Y20208036D01*
X-13312082Y20136608D01*
X-13248273Y20065179D01*
X-13152558Y20029465D01*
X-13088749Y20029465D01*
X-12993035Y20065179D01*
X-12961130Y20100893D01*
X-12961130Y20350893D01*
X-13088749Y20350893D01*
X-12673987Y20029465D02*
X-12673987Y20779465D01*
X-12291130Y20029465D01*
X-12291130Y20779465D01*
X-11972082Y20029465D02*
X-11972082Y20779465D01*
X-11812558Y20779465D01*
X-11716844Y20743750D01*
X-11653035Y20672322D01*
X-11621130Y20600893D01*
X-11589225Y20458036D01*
X-11589225Y20350893D01*
X-11621130Y20208036D01*
X-11653035Y20136608D01*
X-11716844Y20065179D01*
X-11812558Y20029465D01*
X-11972082Y20029465D01*
X-13318273Y7543750D02*
X-12999225Y7543750D01*
X-13382082Y7329465D02*
X-13158749Y8079465D01*
X-12935416Y7329465D01*
X-12361130Y7329465D02*
X-12743987Y7329465D01*
X-12552558Y7329465D02*
X-12552558Y8079465D01*
X-12616368Y7972322D01*
X-12680178Y7900893D01*
X-12743987Y7865179D01*
X-11595416Y8115179D02*
X-12169701Y7150893D01*
X-11148749Y7722322D02*
X-11372082Y7722322D01*
X-11372082Y7329465D02*
X-11372082Y8079465D01*
X-11053035Y8079465D01*
X-10510654Y8079465D02*
X-10638273Y8079465D01*
X-10702082Y8043750D01*
X-10733987Y8008036D01*
X-10797797Y7900893D01*
X-10829701Y7758036D01*
X-10829701Y7472322D01*
X-10797797Y7400893D01*
X-10765892Y7365179D01*
X-10702082Y7329465D01*
X-10574463Y7329465D01*
X-10510654Y7365179D01*
X-10478749Y7400893D01*
X-10446844Y7472322D01*
X-10446844Y7650893D01*
X-10478749Y7722322D01*
X-10510654Y7758036D01*
X-10574463Y7793750D01*
X-10702082Y7793750D01*
X-10765892Y7758036D01*
X-10797797Y7722322D01*
X-10829701Y7650893D01*
X-3915178Y222322D02*
X-3691844Y222322D01*
X-3596130Y-170535D02*
X-3915178Y-170535D01*
X-3915178Y579465D01*
X-3596130Y579465D01*
X-3021844Y579465D02*
X-3149463Y579465D01*
X-3213273Y543750D01*
X-3245178Y508036D01*
X-3308987Y400893D01*
X-3340892Y258036D01*
X-3340892Y-27678D01*
X-3308987Y-99107D01*
X-3277082Y-134821D01*
X-3213273Y-170535D01*
X-3085654Y-170535D01*
X-3021844Y-134821D01*
X-2989939Y-99107D01*
X-2958035Y-27678D01*
X-2958035Y150893D01*
X-2989939Y222322D01*
X-3021844Y258036D01*
X-3085654Y293750D01*
X-3213273Y293750D01*
X-3277082Y258036D01*
X-3308987Y222322D01*
X-3340892Y150893D01*
X-2192320Y615179D02*
X-2766606Y-349107D01*
X-2032797Y579465D02*
X-1586130Y579465D01*
X-1873273Y-170535D01*
X-3043035Y15693750D02*
X-3106844Y15729465D01*
X-3202558Y15729465D01*
X-3298273Y15693750D01*
X-3362082Y15622322D01*
X-3393987Y15550893D01*
X-3425892Y15408036D01*
X-3425892Y15300893D01*
X-3393987Y15158036D01*
X-3362082Y15086608D01*
X-3298273Y15015179D01*
X-3202558Y14979465D01*
X-3138749Y14979465D01*
X-3043035Y15015179D01*
X-3011130Y15050893D01*
X-3011130Y15300893D01*
X-3138749Y15300893D01*
X-2723987Y14979465D02*
X-2723987Y15729465D01*
X-2341130Y14979465D01*
X-2341130Y15729465D01*
X-2022082Y14979465D02*
X-2022082Y15729465D01*
X-1862558Y15729465D01*
X-1766844Y15693750D01*
X-1703035Y15622322D01*
X-1671130Y15550893D01*
X-1639225Y15408036D01*
X-1639225Y15300893D01*
X-1671130Y15158036D01*
X-1703035Y15086608D01*
X-1766844Y15015179D01*
X-1862558Y14979465D01*
X-2022082Y14979465D01*
X-5151130Y19979465D02*
X-5151130Y20729465D01*
X-4991606Y20729465D01*
X-4895892Y20693750D01*
X-4832082Y20622322D01*
X-4800178Y20550893D01*
X-4768273Y20408036D01*
X-4768273Y20300893D01*
X-4800178Y20158036D01*
X-4832082Y20086608D01*
X-4895892Y20015179D01*
X-4991606Y19979465D01*
X-5151130Y19979465D01*
X-4513035Y20658036D02*
X-4481130Y20693750D01*
X-4417320Y20729465D01*
X-4257797Y20729465D01*
X-4193987Y20693750D01*
X-4162082Y20658036D01*
X-4130178Y20586608D01*
X-4130178Y20515179D01*
X-4162082Y20408036D01*
X-4544939Y19979465D01*
X-4130178Y19979465D01*
X-3364463Y20765179D02*
X-3938749Y19800893D01*
X-2758273Y19979465D02*
X-2981606Y20336608D01*
X-3141130Y19979465D02*
X-3141130Y20729465D01*
X-2885892Y20729465D01*
X-2822082Y20693750D01*
X-2790178Y20658036D01*
X-2758273Y20586608D01*
X-2758273Y20479465D01*
X-2790178Y20408036D01*
X-2822082Y20372322D01*
X-2885892Y20336608D01*
X-3141130Y20336608D01*
X-2534939Y20729465D02*
X-2088273Y19979465D01*
X-2088273Y20729465D02*
X-2534939Y19979465D01*
X-1482082Y19979465D02*
X-1864939Y19979465D01*
X-1673511Y19979465D02*
X-1673511Y20729465D01*
X-1737320Y20622322D01*
X-1801130Y20550893D01*
X-1864939Y20515179D01*
X-3723749Y-4827678D02*
X-3628035Y-4863392D01*
X-3596130Y-4899107D01*
X-3564225Y-4970535D01*
X-3564225Y-5077678D01*
X-3596130Y-5149107D01*
X-3628035Y-5184821D01*
X-3691844Y-5220535D01*
X-3947082Y-5220535D01*
X-3947082Y-4470535D01*
X-3723749Y-4470535D01*
X-3659939Y-4506250D01*
X-3628035Y-4541964D01*
X-3596130Y-4613392D01*
X-3596130Y-4684821D01*
X-3628035Y-4756250D01*
X-3659939Y-4791964D01*
X-3723749Y-4827678D01*
X-3947082Y-4827678D01*
X-2958035Y-4470535D02*
X-3277082Y-4470535D01*
X-3308987Y-4827678D01*
X-3277082Y-4791964D01*
X-3213273Y-4756250D01*
X-3053749Y-4756250D01*
X-2989939Y-4791964D01*
X-2958035Y-4827678D01*
X-2926130Y-4899107D01*
X-2926130Y-5077678D01*
X-2958035Y-5149107D01*
X-2989939Y-5184821D01*
X-3053749Y-5220535D01*
X-3213273Y-5220535D01*
X-3277082Y-5184821D01*
X-3308987Y-5149107D01*
X-2160416Y-4434821D02*
X-2734701Y-5399107D01*
X-1905178Y-5220535D02*
X-1777558Y-5220535D01*
X-1713749Y-5184821D01*
X-1681844Y-5149107D01*
X-1618035Y-5041964D01*
X-1586130Y-4899107D01*
X-1586130Y-4613392D01*
X-1618035Y-4541964D01*
X-1649939Y-4506250D01*
X-1713749Y-4470535D01*
X-1841368Y-4470535D01*
X-1905178Y-4506250D01*
X-1937082Y-4541964D01*
X-1968987Y-4613392D01*
X-1968987Y-4791964D01*
X-1937082Y-4863392D01*
X-1905178Y-4899107D01*
X-1841368Y-4934821D01*
X-1713749Y-4934821D01*
X-1649939Y-4899107D01*
X-1618035Y-4863392D01*
X-1586130Y-4791964D01*
X-6505178Y10015179D02*
X-6409463Y9979465D01*
X-6249939Y9979465D01*
X-6186130Y10015179D01*
X-6154225Y10050893D01*
X-6122320Y10122322D01*
X-6122320Y10193750D01*
X-6154225Y10265179D01*
X-6186130Y10300893D01*
X-6249939Y10336608D01*
X-6377558Y10372322D01*
X-6441368Y10408036D01*
X-6473273Y10443750D01*
X-6505178Y10515179D01*
X-6505178Y10586608D01*
X-6473273Y10658036D01*
X-6441368Y10693750D01*
X-6377558Y10729465D01*
X-6218035Y10729465D01*
X-6122320Y10693750D01*
X-5452320Y10050893D02*
X-5484225Y10015179D01*
X-5579939Y9979465D01*
X-5643749Y9979465D01*
X-5739463Y10015179D01*
X-5803273Y10086608D01*
X-5835178Y10158036D01*
X-5867082Y10300893D01*
X-5867082Y10408036D01*
X-5835178Y10550893D01*
X-5803273Y10622322D01*
X-5739463Y10693750D01*
X-5643749Y10729465D01*
X-5579939Y10729465D01*
X-5484225Y10693750D01*
X-5452320Y10658036D01*
X-4846130Y9979465D02*
X-5165178Y9979465D01*
X-5165178Y10729465D01*
X-4144225Y10765179D02*
X-4718511Y9800893D01*
X-3920892Y9979465D02*
X-3920892Y10729465D01*
X-3761368Y10729465D01*
X-3665654Y10693750D01*
X-3601844Y10622322D01*
X-3569939Y10550893D01*
X-3538035Y10408036D01*
X-3538035Y10300893D01*
X-3569939Y10158036D01*
X-3601844Y10086608D01*
X-3665654Y10015179D01*
X-3761368Y9979465D01*
X-3920892Y9979465D01*
X-3123273Y10729465D02*
X-3059463Y10729465D01*
X-2995654Y10693750D01*
X-2963749Y10658036D01*
X-2931844Y10586608D01*
X-2899939Y10443750D01*
X-2899939Y10265179D01*
X-2931844Y10122322D01*
X-2963749Y10050893D01*
X-2995654Y10015179D01*
X-3059463Y9979465D01*
X-3123273Y9979465D01*
X-3187082Y10015179D01*
X-3218987Y10050893D01*
X-3250892Y10122322D01*
X-3282797Y10265179D01*
X-3282797Y10443750D01*
X-3250892Y10586608D01*
X-3218987Y10658036D01*
X-3187082Y10693750D01*
X-3123273Y10729465D01*
X-2134225Y10765179D02*
X-2708511Y9800893D01*
X-1974701Y10729465D02*
X-1559939Y10729465D01*
X-1783273Y10443750D01*
X-1687558Y10443750D01*
X-1623749Y10408036D01*
X-1591844Y10372322D01*
X-1559939Y10300893D01*
X-1559939Y10122322D01*
X-1591844Y10050893D01*
X-1623749Y10015179D01*
X-1687558Y9979465D01*
X-1878987Y9979465D01*
X-1942797Y10015179D01*
X-1974701Y10050893D01*
X-3947082Y7479465D02*
X-3947082Y8229465D01*
X-3787558Y8229465D01*
X-3691844Y8193750D01*
X-3628035Y8122322D01*
X-3596130Y8050893D01*
X-3564225Y7908036D01*
X-3564225Y7800893D01*
X-3596130Y7658036D01*
X-3628035Y7586608D01*
X-3691844Y7515179D01*
X-3787558Y7479465D01*
X-3947082Y7479465D01*
X-2989939Y7979465D02*
X-2989939Y7479465D01*
X-3149463Y8265179D02*
X-3308987Y7729465D01*
X-2894225Y7729465D01*
X-2160416Y8265179D02*
X-2734701Y7300893D01*
X-1649939Y7979465D02*
X-1649939Y7479465D01*
X-1809463Y8265179D02*
X-1968987Y7729465D01*
X-1554225Y7729465D01*
X-3723749Y-2327678D02*
X-3628035Y-2363392D01*
X-3596130Y-2399107D01*
X-3564225Y-2470535D01*
X-3564225Y-2577678D01*
X-3596130Y-2649107D01*
X-3628035Y-2684821D01*
X-3691844Y-2720535D01*
X-3947082Y-2720535D01*
X-3947082Y-1970535D01*
X-3723749Y-1970535D01*
X-3659939Y-2006250D01*
X-3628035Y-2041964D01*
X-3596130Y-2113392D01*
X-3596130Y-2184821D01*
X-3628035Y-2256250D01*
X-3659939Y-2291964D01*
X-3723749Y-2327678D01*
X-3947082Y-2327678D01*
X-2989939Y-2220535D02*
X-2989939Y-2720535D01*
X-3149463Y-1934821D02*
X-3308987Y-2470535D01*
X-2894225Y-2470535D01*
X-2160416Y-1934821D02*
X-2734701Y-2899107D01*
X-1841368Y-2291964D02*
X-1905178Y-2256250D01*
X-1937082Y-2220535D01*
X-1968987Y-2149107D01*
X-1968987Y-2113392D01*
X-1937082Y-2041964D01*
X-1905178Y-2006250D01*
X-1841368Y-1970535D01*
X-1713749Y-1970535D01*
X-1649939Y-2006250D01*
X-1618035Y-2041964D01*
X-1586130Y-2113392D01*
X-1586130Y-2149107D01*
X-1618035Y-2220535D01*
X-1649939Y-2256250D01*
X-1713749Y-2291964D01*
X-1841368Y-2291964D01*
X-1905178Y-2327678D01*
X-1937082Y-2363392D01*
X-1968987Y-2434821D01*
X-1968987Y-2577678D01*
X-1937082Y-2649107D01*
X-1905178Y-2684821D01*
X-1841368Y-2720535D01*
X-1713749Y-2720535D01*
X-1649939Y-2684821D01*
X-1618035Y-2649107D01*
X-1586130Y-2577678D01*
X-1586130Y-2434821D01*
X-1618035Y-2363392D01*
X-1649939Y-2327678D01*
X-1713749Y-2291964D01*
X-13015178Y-2870535D02*
X-13398035Y-2870535D01*
X-13206606Y-2870535D02*
X-13206606Y-2120535D01*
X-13270416Y-2227678D01*
X-13334225Y-2299107D01*
X-13398035Y-2334821D01*
X-12440892Y-2120535D02*
X-12568511Y-2120535D01*
X-12632320Y-2156250D01*
X-12664225Y-2191964D01*
X-12728035Y-2299107D01*
X-12759939Y-2441964D01*
X-12759939Y-2727678D01*
X-12728035Y-2799107D01*
X-12696130Y-2834821D01*
X-12632320Y-2870535D01*
X-12504701Y-2870535D01*
X-12440892Y-2834821D01*
X-12408987Y-2799107D01*
X-12377082Y-2727678D01*
X-12377082Y-2549107D01*
X-12408987Y-2477678D01*
X-12440892Y-2441964D01*
X-12504701Y-2406250D01*
X-12632320Y-2406250D01*
X-12696130Y-2441964D01*
X-12728035Y-2477678D01*
X-12759939Y-2549107D01*
X-11611368Y-2084821D02*
X-12185654Y-3049107D01*
X-11164701Y-2477678D02*
X-11068987Y-2513392D01*
X-11037082Y-2549107D01*
X-11005178Y-2620535D01*
X-11005178Y-2727678D01*
X-11037082Y-2799107D01*
X-11068987Y-2834821D01*
X-11132797Y-2870535D01*
X-11388035Y-2870535D01*
X-11388035Y-2120535D01*
X-11164701Y-2120535D01*
X-11100892Y-2156250D01*
X-11068987Y-2191964D01*
X-11037082Y-2263392D01*
X-11037082Y-2334821D01*
X-11068987Y-2406250D01*
X-11100892Y-2441964D01*
X-11164701Y-2477678D01*
X-11388035Y-2477678D01*
X-10749939Y-2191964D02*
X-10718035Y-2156250D01*
X-10654225Y-2120535D01*
X-10494701Y-2120535D01*
X-10430892Y-2156250D01*
X-10398987Y-2191964D01*
X-10367082Y-2263392D01*
X-10367082Y-2334821D01*
X-10398987Y-2441964D01*
X-10781844Y-2870535D01*
X-10367082Y-2870535D01*
%TO.C,G\u002A\u002A\u002A*%
G36*
X-7772494Y-14893472D02*
G01*
X-7723833Y-14913644D01*
X-7692053Y-14929891D01*
X-7573015Y-14999034D01*
X-7482022Y-15065973D01*
X-7421989Y-15128175D01*
X-7395834Y-15183106D01*
X-7395232Y-15187705D01*
X-7405696Y-15252640D01*
X-7444921Y-15301853D01*
X-7504228Y-15325766D01*
X-7521156Y-15326669D01*
X-7562687Y-15315364D01*
X-7626421Y-15284977D01*
X-7704002Y-15239675D01*
X-7732706Y-15221182D01*
X-7803088Y-15171721D01*
X-7861978Y-15124763D01*
X-7901124Y-15087169D01*
X-7911438Y-15072565D01*
X-7920164Y-15011674D01*
X-7898507Y-14951663D01*
X-7852180Y-14906505D01*
X-7841229Y-14900834D01*
X-7807390Y-14890027D01*
X-7772494Y-14893472D01*
G37*
D11*
%TO.C,D5*%
X28862024Y-3631250D02*
X29862024Y-3631250D01*
X28862024Y-4631250D02*
X29862024Y-4631250D01*
X29862024Y-3631250D02*
X29362024Y-4531250D01*
X29362024Y-4531250D02*
X28862024Y-3631250D01*
%TO.C,D7*%
X9812024Y-22681250D02*
X10812024Y-22681250D01*
X10312024Y-23581250D02*
X9812024Y-22681250D01*
X9812024Y-23681250D02*
X10812024Y-23681250D01*
X10812024Y-22681250D02*
X10312024Y-23581250D01*
%TO.C,D4*%
X9812024Y-4631250D02*
X10812024Y-4631250D01*
X10312024Y-4531250D02*
X9812024Y-3631250D01*
X10812024Y-3631250D02*
X10312024Y-4531250D01*
X9812024Y-3631250D02*
X10812024Y-3631250D01*
%TO.C,D9*%
X47912024Y-23681250D02*
X48912024Y-23681250D01*
X47912024Y-22681250D02*
X48912024Y-22681250D01*
X48912024Y-22681250D02*
X48412024Y-23581250D01*
X48412024Y-23581250D02*
X47912024Y-22681250D01*
%TO.C,D1*%
X10812024Y15418750D02*
X10312024Y14518750D01*
X9812024Y15418750D02*
X10812024Y15418750D01*
X9812024Y14418750D02*
X10812024Y14418750D01*
X10312024Y14518750D02*
X9812024Y15418750D01*
%TO.C,D6*%
X47912024Y-4631250D02*
X48912024Y-4631250D01*
X47912024Y-3631250D02*
X48912024Y-3631250D01*
X48412024Y-4531250D02*
X47912024Y-3631250D01*
X48912024Y-3631250D02*
X48412024Y-4531250D01*
%TO.C,D2*%
X28862024Y15418750D02*
X29862024Y15418750D01*
X29362024Y14518750D02*
X28862024Y15418750D01*
X29862024Y15418750D02*
X29362024Y14518750D01*
X28862024Y14418750D02*
X29862024Y14418750D01*
%TO.C,D8*%
X29862024Y-22681250D02*
X29362024Y-23581250D01*
X29362024Y-23581250D02*
X28862024Y-22681250D01*
X28862024Y-23681250D02*
X29862024Y-23681250D01*
X28862024Y-22681250D02*
X29862024Y-22681250D01*
%TO.C,U1*%
X-7637558Y27468750D02*
X-7337558Y27468750D01*
X1262442Y24018750D02*
X462442Y24018750D01*
X1262442Y-6181250D02*
X402442Y-6181250D01*
X-11237558Y26968750D02*
X-3737558Y26968750D01*
X-16237558Y-5281250D02*
X-16237558Y-6181250D01*
X-7837558Y27768750D02*
X-7137558Y27768750D01*
X-7487558Y27268750D02*
X-7987558Y27918750D01*
X-16237558Y24018750D02*
X-16237558Y23168750D01*
X-6987558Y27918750D02*
X-7487558Y27268750D01*
X-3737558Y26968750D02*
X-3737558Y28268750D01*
X-3737558Y28268750D02*
X-11237558Y28268750D01*
X1262442Y24018750D02*
X1262442Y23168750D01*
X-16237558Y-6181250D02*
X-15387558Y-6181250D01*
X-16237558Y24018750D02*
X-15387558Y24018750D01*
X-11237558Y28268750D02*
X-11237558Y26968750D01*
X1262442Y-5331250D02*
X1262442Y-6181250D01*
X-7737558Y27618750D02*
X-7237558Y27618750D01*
X-7987558Y27918750D02*
X-6987558Y27918750D01*
%TO.C,D3*%
X47912024Y14418750D02*
X48912024Y14418750D01*
X48912024Y15418750D02*
X48412024Y14518750D01*
X47912024Y15418750D02*
X48912024Y15418750D01*
X48412024Y14518750D02*
X47912024Y15418750D01*
%TD*%
D14*
%TO.C,J1*%
X-11297558Y-10881250D03*
X-8757558Y-10881250D03*
X-6217558Y-10881250D03*
X-3677558Y-10881250D03*
%TD*%
%LPC*%
%TO.C,G\u002A\u002A\u002A*%
G36*
X-7618472Y-23914262D02*
G01*
X-7547760Y-23930687D01*
X-7505867Y-23960589D01*
X-7488581Y-24006036D01*
X-7487558Y-24024439D01*
X-7498102Y-24075824D01*
X-7532458Y-24110739D01*
X-7594715Y-24131220D01*
X-7688959Y-24139307D01*
X-7718546Y-24139632D01*
X-7802141Y-24136327D01*
X-7865013Y-24127257D01*
X-7895612Y-24115633D01*
X-7932684Y-24067051D01*
X-7940439Y-24009058D01*
X-7917520Y-23955778D01*
X-7911595Y-23949308D01*
X-7884540Y-23928303D01*
X-7848757Y-23916078D01*
X-7793959Y-23910458D01*
X-7722216Y-23909246D01*
X-7618472Y-23914262D01*
G37*
G36*
X-11463200Y-23412380D02*
G01*
X-11251051Y-23412684D01*
X-11006913Y-23413217D01*
X-10728468Y-23413939D01*
X-10490333Y-23414593D01*
X-10183915Y-23415459D01*
X-9913593Y-23416291D01*
X-9677067Y-23417141D01*
X-9472038Y-23418061D01*
X-9296203Y-23419103D01*
X-9147263Y-23420320D01*
X-9022918Y-23421764D01*
X-8920866Y-23423487D01*
X-8838807Y-23425543D01*
X-8774441Y-23427982D01*
X-8725467Y-23430857D01*
X-8689584Y-23434222D01*
X-8664492Y-23438127D01*
X-8647890Y-23442626D01*
X-8637478Y-23447770D01*
X-8630955Y-23453612D01*
X-8628336Y-23456944D01*
X-8603346Y-23517150D01*
X-8611774Y-23575676D01*
X-8636198Y-23608689D01*
X-8644432Y-23614038D01*
X-8658117Y-23618755D01*
X-8679545Y-23622881D01*
X-8711006Y-23626453D01*
X-8754794Y-23629511D01*
X-8813201Y-23632095D01*
X-8888518Y-23634243D01*
X-8983038Y-23635995D01*
X-9099053Y-23637390D01*
X-9238854Y-23638467D01*
X-9404734Y-23639266D01*
X-9598984Y-23639825D01*
X-9823898Y-23640184D01*
X-10081767Y-23640382D01*
X-10374882Y-23640458D01*
X-10494209Y-23640463D01*
X-10802573Y-23640412D01*
X-11074814Y-23640232D01*
X-11313203Y-23639889D01*
X-11520015Y-23639346D01*
X-11697521Y-23638565D01*
X-11847996Y-23637512D01*
X-11973713Y-23636149D01*
X-12076945Y-23634439D01*
X-12159964Y-23632348D01*
X-12225045Y-23629837D01*
X-12274460Y-23626871D01*
X-12310482Y-23623413D01*
X-12335385Y-23619428D01*
X-12351442Y-23614877D01*
X-12359779Y-23610576D01*
X-12395038Y-23565694D01*
X-12398647Y-23510093D01*
X-12370326Y-23455199D01*
X-12363766Y-23448190D01*
X-12356742Y-23441734D01*
X-12347834Y-23436047D01*
X-12334727Y-23431088D01*
X-12315105Y-23426815D01*
X-12286652Y-23423186D01*
X-12247052Y-23420161D01*
X-12193989Y-23417697D01*
X-12125147Y-23415753D01*
X-12038211Y-23414287D01*
X-11930864Y-23413259D01*
X-11800790Y-23412626D01*
X-11645674Y-23412347D01*
X-11463200Y-23412380D01*
G37*
G36*
X-9968084Y-22930129D02*
G01*
X-9752064Y-22930250D01*
X-9568765Y-22930556D01*
X-9415349Y-22931133D01*
X-9288977Y-22932066D01*
X-9186811Y-22933442D01*
X-9106013Y-22935345D01*
X-9043745Y-22937862D01*
X-8997168Y-22941078D01*
X-8963444Y-22945079D01*
X-8939734Y-22949951D01*
X-8923201Y-22955779D01*
X-8911006Y-22962648D01*
X-8901258Y-22969899D01*
X-8859627Y-23016991D01*
X-8855140Y-23067187D01*
X-8880559Y-23117824D01*
X-8910446Y-23160493D01*
X-10202300Y-23160493D01*
X-10456904Y-23160452D01*
X-10675872Y-23160279D01*
X-10861967Y-23159902D01*
X-11017952Y-23159246D01*
X-11146588Y-23158240D01*
X-11250637Y-23156809D01*
X-11332863Y-23154880D01*
X-11396027Y-23152380D01*
X-11442892Y-23149235D01*
X-11476220Y-23145373D01*
X-11498772Y-23140720D01*
X-11513312Y-23135203D01*
X-11522602Y-23128749D01*
X-11525928Y-23125384D01*
X-11553525Y-23070733D01*
X-11551977Y-23010695D01*
X-11522592Y-22961882D01*
X-11512997Y-22955536D01*
X-11497430Y-22950089D01*
X-11473124Y-22945471D01*
X-11437311Y-22941617D01*
X-11387223Y-22938457D01*
X-11320091Y-22935926D01*
X-11233148Y-22933955D01*
X-11123625Y-22932476D01*
X-10988755Y-22931423D01*
X-10825769Y-22930727D01*
X-10631900Y-22930322D01*
X-10404379Y-22930139D01*
X-10219664Y-22930108D01*
X-9968084Y-22930129D01*
G37*
G36*
X-14193924Y-24145101D02*
G01*
X-14136366Y-23994267D01*
X-14072335Y-23827082D01*
X-14003061Y-23646790D01*
X-13947951Y-23503741D01*
X-13875530Y-23315684D01*
X-13807420Y-23138273D01*
X-13744852Y-22974753D01*
X-13689058Y-22828368D01*
X-13641270Y-22702363D01*
X-13602718Y-22599982D01*
X-13574633Y-22524468D01*
X-13558248Y-22479066D01*
X-13554376Y-22466709D01*
X-13572514Y-22461170D01*
X-13622691Y-22456418D01*
X-13698551Y-22452787D01*
X-13793737Y-22450613D01*
X-13868276Y-22450138D01*
X-14182176Y-22450138D01*
X-14233108Y-22330146D01*
X-14258801Y-22267658D01*
X-14277087Y-22219446D01*
X-14283985Y-22196049D01*
X-14265573Y-22192264D01*
X-14213568Y-22188511D01*
X-14132774Y-22184957D01*
X-14027998Y-22181769D01*
X-13904042Y-22179115D01*
X-13765713Y-22177164D01*
X-13734334Y-22176850D01*
X-13184737Y-22171756D01*
X-13103502Y-21845376D01*
X-13070243Y-21714977D01*
X-13033252Y-21575238D01*
X-12996203Y-21439719D01*
X-12962770Y-21321980D01*
X-12950072Y-21279037D01*
X-12924633Y-21196827D01*
X-12890819Y-21090995D01*
X-12850656Y-20967575D01*
X-12806174Y-20832602D01*
X-12759399Y-20692109D01*
X-12712358Y-20552132D01*
X-12667080Y-20418704D01*
X-12625592Y-20297860D01*
X-12589921Y-20195633D01*
X-12562095Y-20118058D01*
X-12544542Y-20072131D01*
X-12517799Y-20007579D01*
X-12567215Y-20039958D01*
X-12679656Y-20098036D01*
X-12812744Y-20142470D01*
X-12949724Y-20168311D01*
X-13016810Y-20172755D01*
X-13149083Y-20165585D01*
X-13257173Y-20136723D01*
X-13350906Y-20082299D01*
X-13429165Y-20010353D01*
X-13521135Y-19890651D01*
X-13583610Y-19758533D01*
X-13616510Y-19612302D01*
X-13618885Y-19493524D01*
X-13331060Y-19493524D01*
X-13318844Y-19615878D01*
X-13279970Y-19722416D01*
X-13217738Y-19806877D01*
X-13136506Y-19862533D01*
X-13088775Y-19881758D01*
X-13050159Y-19889011D01*
X-13005556Y-19884733D01*
X-12939859Y-19869367D01*
X-12936052Y-19868393D01*
X-12849380Y-19840340D01*
X-12757494Y-19801843D01*
X-12710769Y-19778066D01*
X-12522117Y-19675478D01*
X-12345027Y-19587129D01*
X-12172274Y-19510419D01*
X-11996631Y-19442747D01*
X-11810872Y-19381515D01*
X-11607770Y-19324123D01*
X-11380100Y-19267970D01*
X-11151137Y-19216969D01*
X-11012361Y-19188465D01*
X-10854594Y-19158188D01*
X-10683000Y-19126953D01*
X-10502746Y-19095571D01*
X-10318997Y-19064855D01*
X-10136921Y-19035618D01*
X-9961683Y-19008673D01*
X-9798448Y-18984832D01*
X-9652384Y-18964907D01*
X-9528656Y-18949712D01*
X-9432430Y-18940059D01*
X-9369834Y-18936759D01*
X-9291871Y-18950943D01*
X-9239885Y-18991889D01*
X-9216513Y-19057185D01*
X-9215449Y-19077775D01*
X-9218515Y-19119051D01*
X-9230831Y-19151449D01*
X-9257081Y-19177010D01*
X-9301943Y-19197773D01*
X-9370099Y-19215780D01*
X-9466231Y-19233069D01*
X-9595019Y-19251682D01*
X-9623169Y-19255483D01*
X-9994974Y-19308146D01*
X-10350129Y-19364029D01*
X-10683813Y-19422268D01*
X-10991204Y-19481999D01*
X-11267478Y-19542357D01*
X-11394512Y-19573019D01*
X-11516541Y-19605032D01*
X-11641984Y-19640502D01*
X-11764708Y-19677432D01*
X-11878584Y-19713822D01*
X-11977479Y-19747675D01*
X-12055262Y-19776993D01*
X-12105802Y-19799778D01*
X-12120682Y-19809663D01*
X-12137551Y-19838515D01*
X-12164621Y-19899710D01*
X-12200393Y-19989017D01*
X-12243372Y-20102206D01*
X-12292060Y-20235046D01*
X-12344960Y-20383308D01*
X-12400577Y-20542761D01*
X-12457413Y-20709175D01*
X-12513971Y-20878320D01*
X-12568755Y-21045964D01*
X-12620268Y-21207879D01*
X-12654148Y-21317409D01*
X-12686997Y-21427613D01*
X-12722180Y-21550008D01*
X-12758120Y-21678637D01*
X-12793239Y-21807541D01*
X-12825960Y-21930761D01*
X-12854707Y-22042338D01*
X-12877901Y-22136313D01*
X-12893965Y-22206727D01*
X-12901322Y-22247622D01*
X-12901617Y-22252330D01*
X-12894883Y-22259031D01*
X-12872566Y-22264486D01*
X-12831496Y-22268808D01*
X-12768502Y-22272108D01*
X-12680414Y-22274500D01*
X-12564061Y-22276094D01*
X-12416272Y-22277004D01*
X-12233876Y-22277341D01*
X-12194017Y-22277349D01*
X-11486417Y-22277349D01*
X-11402067Y-22162406D01*
X-11351777Y-22089940D01*
X-11293789Y-22000477D01*
X-11238841Y-21910700D01*
X-11226966Y-21890384D01*
X-11189017Y-21822928D01*
X-11155050Y-21757720D01*
X-11121606Y-21687115D01*
X-11085226Y-21603472D01*
X-11042451Y-21499147D01*
X-10989823Y-21366497D01*
X-10989503Y-21365683D01*
X-10956439Y-21298447D01*
X-10919615Y-21261066D01*
X-10899614Y-21251584D01*
X-10827865Y-21244238D01*
X-10763117Y-21269302D01*
X-10717033Y-21322136D01*
X-10715770Y-21324703D01*
X-10703157Y-21358389D01*
X-10701361Y-21393559D01*
X-10711395Y-21442078D01*
X-10731269Y-21506645D01*
X-10769202Y-21609155D01*
X-10821701Y-21732278D01*
X-10883061Y-21864018D01*
X-10947577Y-21992380D01*
X-11009542Y-22105366D01*
X-11040136Y-22156081D01*
X-11116724Y-22277349D01*
X-8551468Y-22277349D01*
X-8518812Y-22070585D01*
X-8497368Y-21951119D01*
X-8470540Y-21826520D01*
X-8440349Y-21704075D01*
X-8408815Y-21591069D01*
X-8377959Y-21494791D01*
X-8349799Y-21422526D01*
X-8328491Y-21384117D01*
X-8278227Y-21348060D01*
X-8212958Y-21335854D01*
X-8148681Y-21348693D01*
X-8117830Y-21368382D01*
X-8093281Y-21404320D01*
X-8084733Y-21456874D01*
X-8092401Y-21531329D01*
X-8116500Y-21632970D01*
X-8130605Y-21681811D01*
X-8149631Y-21750953D01*
X-8171439Y-21838902D01*
X-8194110Y-21936789D01*
X-8215725Y-22035743D01*
X-8234365Y-22126897D01*
X-8248111Y-22201379D01*
X-8255044Y-22250320D01*
X-8255510Y-22259125D01*
X-8236696Y-22263786D01*
X-8181789Y-22267852D01*
X-8093088Y-22271267D01*
X-7972893Y-22273977D01*
X-7823504Y-22275928D01*
X-7647221Y-22277063D01*
X-7488930Y-22277349D01*
X-7293702Y-22277515D01*
X-7133382Y-22278097D01*
X-7004479Y-22279222D01*
X-6903503Y-22281018D01*
X-6826966Y-22283612D01*
X-6771377Y-22287130D01*
X-6733246Y-22291700D01*
X-6709085Y-22297450D01*
X-6695404Y-22304505D01*
X-6693366Y-22306332D01*
X-6678061Y-22316377D01*
X-6659990Y-22312460D01*
X-6634120Y-22290308D01*
X-6595420Y-22245645D01*
X-6540840Y-22176740D01*
X-6477207Y-22092854D01*
X-6411927Y-22003154D01*
X-6355564Y-21922282D01*
X-6336380Y-21893373D01*
X-6270406Y-21782993D01*
X-6198208Y-21647800D01*
X-6125386Y-21499515D01*
X-6057540Y-21349857D01*
X-6000269Y-21210547D01*
X-5969457Y-21125422D01*
X-5926915Y-21011437D01*
X-5885915Y-20932069D01*
X-5843520Y-20883799D01*
X-5796793Y-20863106D01*
X-5751735Y-20864522D01*
X-5681634Y-20893788D01*
X-5640890Y-20946959D01*
X-5631787Y-21020710D01*
X-5633740Y-21036254D01*
X-5658804Y-21141075D01*
X-5702916Y-21270489D01*
X-5762776Y-21417861D01*
X-5835088Y-21576559D01*
X-5916552Y-21739948D01*
X-6003872Y-21901395D01*
X-6093750Y-22054266D01*
X-6182887Y-22191928D01*
X-6262281Y-22300555D01*
X-6318403Y-22371758D01*
X-6159028Y-22378242D01*
X-6056235Y-22381504D01*
X-5927401Y-22384158D01*
X-5779033Y-22386195D01*
X-5617637Y-22387611D01*
X-5449719Y-22388397D01*
X-5281784Y-22388546D01*
X-5120339Y-22388051D01*
X-4971890Y-22386907D01*
X-4842944Y-22385105D01*
X-4740005Y-22382638D01*
X-4674786Y-22379833D01*
X-4467076Y-22367124D01*
X-4479692Y-20791133D01*
X-4486085Y-20143240D01*
X-4494642Y-19532352D01*
X-4505440Y-18957134D01*
X-4518559Y-18416251D01*
X-4534076Y-17908368D01*
X-4544318Y-17637348D01*
X-4248223Y-17637348D01*
X-4225977Y-18439583D01*
X-4222170Y-18591970D01*
X-4218234Y-18777591D01*
X-4214244Y-18991284D01*
X-4210276Y-19227885D01*
X-4206406Y-19482232D01*
X-4202708Y-19749162D01*
X-4199258Y-20023511D01*
X-4196131Y-20300119D01*
X-4193403Y-20573820D01*
X-4191404Y-20806775D01*
X-4179077Y-22371732D01*
X-4052630Y-22378800D01*
X-3988106Y-22380731D01*
X-3895676Y-22381288D01*
X-3785802Y-22380510D01*
X-3668950Y-22378438D01*
X-3619002Y-22377153D01*
X-3311821Y-22368439D01*
X-3087137Y-22254633D01*
X-2808940Y-22100780D01*
X-2552969Y-21930887D01*
X-2310396Y-21738363D01*
X-2072392Y-21516618D01*
X-2001069Y-21443938D01*
X-1824822Y-21253675D01*
X-1676196Y-21077795D01*
X-1555928Y-20917451D01*
X-1464754Y-20773794D01*
X-1403408Y-20647978D01*
X-1372628Y-20541156D01*
X-1372239Y-20459002D01*
X-1407022Y-20374129D01*
X-1476086Y-20295433D01*
X-1575446Y-20225907D01*
X-1701118Y-20168546D01*
X-1799263Y-20138097D01*
X-1967364Y-20103578D01*
X-2149044Y-20084492D01*
X-2349717Y-20080740D01*
X-2574799Y-20092226D01*
X-2829705Y-20118852D01*
X-2834260Y-20119426D01*
X-2918828Y-20119197D01*
X-2975868Y-20092669D01*
X-3006968Y-20038575D01*
X-3014240Y-19975845D01*
X-3011810Y-19931149D01*
X-3000124Y-19898729D01*
X-2972592Y-19872615D01*
X-2922620Y-19846840D01*
X-2843618Y-19815435D01*
X-2832389Y-19811198D01*
X-2525852Y-19675804D01*
X-2240764Y-19508806D01*
X-1978257Y-19311183D01*
X-1739462Y-19083912D01*
X-1525511Y-18827972D01*
X-1337534Y-18544339D01*
X-1308567Y-18494012D01*
X-1254536Y-18386162D01*
X-1211083Y-18275993D01*
X-1182021Y-18174664D01*
X-1171162Y-18093332D01*
X-1171156Y-18091846D01*
X-1189631Y-18001398D01*
X-1245014Y-17921399D01*
X-1337243Y-17851932D01*
X-1372743Y-17832829D01*
X-1426808Y-17807172D01*
X-1473040Y-17790555D01*
X-1522362Y-17781073D01*
X-1585695Y-17776826D01*
X-1673961Y-17775910D01*
X-1699123Y-17775971D01*
X-1862626Y-17782660D01*
X-1997064Y-17801108D01*
X-2036609Y-17810345D01*
X-2136727Y-17829671D01*
X-2209914Y-17825779D01*
X-2260488Y-17797765D01*
X-2287359Y-17757835D01*
X-2299555Y-17718048D01*
X-2296799Y-17676869D01*
X-2276285Y-17628196D01*
X-2235207Y-17565933D01*
X-2170760Y-17483980D01*
X-2149628Y-17458453D01*
X-2006109Y-17275136D01*
X-1876360Y-17087304D01*
X-1763610Y-16900707D01*
X-1671086Y-16721095D01*
X-1602016Y-16554219D01*
X-1560085Y-16408060D01*
X-1544742Y-16328159D01*
X-1538510Y-16273472D01*
X-1541210Y-16231956D01*
X-1552659Y-16191569D01*
X-1556678Y-16180733D01*
X-1591702Y-16115475D01*
X-1642567Y-16070567D01*
X-1715097Y-16043390D01*
X-1815110Y-16031325D01*
X-1891111Y-16030255D01*
X-2078475Y-16045807D01*
X-2284718Y-16086261D01*
X-2502207Y-16148747D01*
X-2723305Y-16230394D01*
X-2940379Y-16328330D01*
X-3145792Y-16439686D01*
X-3331911Y-16561590D01*
X-3360597Y-16582790D01*
X-3562417Y-16752283D01*
X-3759283Y-16951160D01*
X-3943372Y-17170513D01*
X-4106861Y-17401437D01*
X-4170423Y-17504703D01*
X-4248223Y-17637348D01*
X-4544318Y-17637348D01*
X-4552072Y-17432149D01*
X-4572623Y-16986259D01*
X-4595810Y-16569362D01*
X-4621710Y-16180123D01*
X-4650402Y-15817207D01*
X-4681966Y-15479279D01*
X-4716479Y-15165002D01*
X-4754020Y-14873042D01*
X-4794668Y-14602064D01*
X-4838501Y-14350731D01*
X-4867787Y-14201879D01*
X-4919094Y-13975602D01*
X-4974171Y-13775034D01*
X-5032158Y-13602070D01*
X-5092193Y-13458603D01*
X-5153415Y-13346526D01*
X-5214963Y-13267733D01*
X-5275976Y-13224119D01*
X-5316330Y-13215520D01*
X-5359254Y-13231053D01*
X-5416863Y-13273971D01*
X-5484058Y-13338750D01*
X-5555737Y-13419867D01*
X-5626803Y-13511797D01*
X-5692154Y-13609019D01*
X-5715173Y-13647493D01*
X-5776210Y-13751667D01*
X-5823355Y-13826527D01*
X-5860617Y-13876723D01*
X-5892006Y-13906910D01*
X-5921533Y-13921740D01*
X-5953208Y-13925866D01*
X-5955090Y-13925875D01*
X-5995813Y-13917418D01*
X-6060601Y-13894544D01*
X-6139691Y-13861002D01*
X-6204163Y-13830276D01*
X-6309713Y-13781517D01*
X-6430291Y-13732068D01*
X-6546056Y-13689871D01*
X-6590963Y-13675464D01*
X-6700560Y-13642410D01*
X-6780135Y-13615416D01*
X-6835900Y-13587831D01*
X-6874063Y-13553002D01*
X-6900836Y-13504278D01*
X-6922429Y-13435005D01*
X-6945052Y-13338531D01*
X-6957622Y-13282716D01*
X-7009603Y-13114612D01*
X-7085514Y-12953088D01*
X-7180557Y-12804916D01*
X-7289934Y-12676871D01*
X-7408845Y-12575727D01*
X-7494352Y-12524965D01*
X-7609209Y-12480343D01*
X-7732194Y-12451895D01*
X-7856635Y-12439204D01*
X-7975863Y-12441854D01*
X-8083208Y-12459428D01*
X-8172000Y-12491511D01*
X-8235568Y-12537685D01*
X-8259166Y-12572719D01*
X-8267399Y-12634074D01*
X-8247460Y-12710366D01*
X-8203213Y-12795363D01*
X-8138523Y-12882834D01*
X-8057254Y-12966547D01*
X-7973694Y-13033131D01*
X-7881675Y-13099960D01*
X-7818594Y-13153427D01*
X-7779804Y-13198779D01*
X-7760653Y-13241258D01*
X-7756341Y-13278263D01*
X-7770659Y-13348208D01*
X-7809769Y-13393491D01*
X-7867905Y-13412700D01*
X-7939299Y-13404422D01*
X-8018185Y-13367245D01*
X-8044356Y-13348796D01*
X-8170681Y-13267073D01*
X-8303706Y-13207648D01*
X-8436229Y-13172245D01*
X-8561050Y-13162590D01*
X-8670966Y-13180409D01*
X-8700459Y-13191591D01*
X-8787995Y-13247210D01*
X-8855938Y-13323709D01*
X-8896235Y-13411144D01*
X-8902052Y-13440387D01*
X-8894487Y-13521984D01*
X-8853666Y-13599832D01*
X-8784729Y-13670426D01*
X-8692816Y-13730257D01*
X-8583069Y-13775820D01*
X-8460628Y-13803606D01*
X-8359286Y-13810682D01*
X-8280652Y-13824474D01*
X-8221822Y-13861054D01*
X-8186897Y-13913229D01*
X-8179977Y-13973808D01*
X-8205161Y-14035599D01*
X-8220459Y-14054230D01*
X-8251551Y-14080110D01*
X-8290835Y-14093575D01*
X-8351118Y-14098192D01*
X-8378849Y-14098380D01*
X-8550719Y-14082835D01*
X-8716265Y-14039203D01*
X-8867462Y-13970731D01*
X-8996285Y-13880665D01*
X-9052108Y-13825994D01*
X-9135382Y-13708860D01*
X-9182014Y-13581943D01*
X-9193269Y-13441571D01*
X-9192051Y-13420031D01*
X-9183509Y-13301943D01*
X-9348270Y-13138739D01*
X-9467920Y-13028968D01*
X-9574938Y-12950290D01*
X-9674118Y-12899583D01*
X-9749720Y-12877320D01*
X-9812583Y-12883337D01*
X-9872604Y-12924661D01*
X-9926932Y-12998201D01*
X-9972719Y-13100867D01*
X-9982037Y-13129228D01*
X-10013168Y-13249278D01*
X-10041976Y-13396196D01*
X-10067360Y-13560221D01*
X-10088216Y-13731596D01*
X-10103445Y-13900561D01*
X-10111943Y-14057357D01*
X-10112610Y-14192224D01*
X-10109117Y-14254926D01*
X-10096326Y-14401588D01*
X-10363875Y-14802091D01*
X-10527882Y-15045562D01*
X-10698274Y-15294356D01*
X-10878250Y-15553021D01*
X-11071007Y-15826106D01*
X-11279745Y-16118159D01*
X-11507662Y-16433729D01*
X-11617544Y-16584908D01*
X-11804750Y-16842397D01*
X-11970952Y-17071886D01*
X-12118084Y-17276162D01*
X-12248083Y-17458017D01*
X-12362884Y-17620241D01*
X-12464422Y-17765624D01*
X-12554632Y-17896956D01*
X-12635449Y-18017027D01*
X-12708810Y-18128628D01*
X-12776649Y-18234548D01*
X-12840901Y-18337578D01*
X-12895967Y-18427991D01*
X-13023232Y-18649569D01*
X-13130214Y-18857833D01*
X-13215703Y-19049822D01*
X-13278491Y-19222571D01*
X-13317367Y-19373118D01*
X-13331060Y-19493524D01*
X-13618885Y-19493524D01*
X-13619750Y-19450262D01*
X-13593249Y-19270716D01*
X-13536924Y-19071968D01*
X-13450692Y-18852321D01*
X-13363908Y-18667976D01*
X-13305006Y-18553324D01*
X-13241829Y-18436922D01*
X-13172657Y-18316180D01*
X-13095768Y-18188505D01*
X-13009440Y-18051304D01*
X-12911951Y-17901984D01*
X-12801579Y-17737954D01*
X-12676603Y-17556621D01*
X-12535301Y-17355393D01*
X-12375950Y-17131676D01*
X-12196829Y-16882879D01*
X-11996217Y-16606409D01*
X-11978731Y-16582391D01*
X-11648088Y-16125763D01*
X-11341811Y-15697460D01*
X-11060057Y-15297707D01*
X-10802982Y-14926724D01*
X-10611090Y-14644711D01*
X-10403632Y-14336978D01*
X-10396044Y-14059431D01*
X-10381548Y-13763043D01*
X-10355264Y-13498738D01*
X-10317392Y-13267323D01*
X-10268132Y-13069609D01*
X-10207684Y-12906403D01*
X-10136247Y-12778513D01*
X-10056889Y-12689176D01*
X-9959782Y-12623531D01*
X-9856326Y-12590181D01*
X-9740604Y-12588236D01*
X-9606702Y-12616805D01*
X-9596648Y-12619878D01*
X-9457895Y-12678022D01*
X-9317275Y-12767678D01*
X-9170977Y-12891355D01*
X-9141831Y-12919290D01*
X-9020216Y-13037950D01*
X-8926483Y-12974872D01*
X-8811349Y-12916280D01*
X-8679492Y-12879739D01*
X-8573224Y-12869942D01*
X-8508852Y-12869942D01*
X-8537053Y-12778747D01*
X-8559339Y-12649992D01*
X-8548087Y-12525162D01*
X-8505265Y-12411180D01*
X-8432838Y-12314968D01*
X-8396334Y-12283252D01*
X-8293073Y-12220375D01*
X-8171929Y-12178412D01*
X-8026894Y-12155787D01*
X-7890733Y-12150550D01*
X-7697601Y-12160328D01*
X-7530416Y-12191464D01*
X-7381334Y-12247081D01*
X-7242510Y-12330304D01*
X-7106100Y-12444256D01*
X-7073339Y-12476037D01*
X-6992548Y-12560100D01*
X-6931385Y-12634914D01*
X-6879317Y-12715000D01*
X-6825815Y-12814878D01*
X-6821804Y-12822865D01*
X-6775538Y-12923108D01*
X-6731080Y-13032913D01*
X-6695067Y-13135317D01*
X-6681435Y-13181689D01*
X-6637566Y-13347751D01*
X-6483521Y-13397439D01*
X-6386384Y-13431165D01*
X-6277495Y-13472579D01*
X-6179806Y-13512936D01*
X-6176457Y-13514405D01*
X-6107635Y-13543916D01*
X-6054003Y-13565499D01*
X-6023731Y-13575928D01*
X-6019938Y-13576190D01*
X-6009027Y-13558512D01*
X-5982677Y-13515673D01*
X-5945538Y-13455237D01*
X-5923676Y-13419643D01*
X-5808795Y-13252480D01*
X-5690404Y-13118581D01*
X-5570007Y-13019139D01*
X-5449108Y-12955349D01*
X-5329210Y-12928404D01*
X-5303961Y-12927538D01*
X-5197240Y-12941270D01*
X-5098480Y-12983248D01*
X-5007054Y-13054640D01*
X-4922336Y-13156618D01*
X-4843697Y-13290352D01*
X-4770510Y-13457012D01*
X-4702149Y-13657769D01*
X-4637984Y-13893793D01*
X-4577390Y-14166254D01*
X-4542388Y-14348248D01*
X-4505514Y-14569114D01*
X-4469275Y-14823137D01*
X-4434213Y-15105076D01*
X-4400871Y-15409691D01*
X-4369792Y-15731741D01*
X-4341519Y-16065986D01*
X-4316596Y-16407185D01*
X-4297907Y-16708273D01*
X-4290064Y-16843346D01*
X-4283567Y-16944231D01*
X-4277805Y-17015089D01*
X-4272168Y-17060081D01*
X-4266048Y-17083367D01*
X-4258832Y-17089107D01*
X-4249913Y-17081463D01*
X-4244357Y-17073515D01*
X-4159011Y-16956612D01*
X-4049160Y-16826499D01*
X-3922468Y-16690931D01*
X-3786601Y-16557661D01*
X-3649225Y-16434442D01*
X-3518003Y-16329029D01*
X-3483307Y-16303688D01*
X-3238451Y-16148803D01*
X-2968542Y-16012874D01*
X-2683274Y-15899625D01*
X-2392342Y-15812781D01*
X-2105441Y-15756065D01*
X-2033759Y-15746834D01*
X-1841938Y-15737096D01*
X-1676130Y-15754354D01*
X-1536792Y-15798443D01*
X-1424379Y-15869196D01*
X-1339348Y-15966448D01*
X-1315695Y-16007586D01*
X-1285286Y-16072164D01*
X-1267902Y-16127464D01*
X-1260237Y-16189161D01*
X-1258986Y-16272928D01*
X-1259017Y-16276369D01*
X-1264350Y-16371772D01*
X-1276913Y-16472496D01*
X-1293841Y-16556109D01*
X-1329237Y-16662972D01*
X-1382608Y-16791306D01*
X-1449266Y-16931585D01*
X-1524526Y-17074283D01*
X-1603700Y-17209874D01*
X-1653821Y-17287864D01*
X-1777741Y-17472454D01*
X-1610168Y-17484348D01*
X-1419643Y-17511468D01*
X-1253989Y-17563467D01*
X-1115145Y-17639388D01*
X-1005052Y-17738271D01*
X-953239Y-17808812D01*
X-909932Y-17909415D01*
X-887172Y-18031438D01*
X-886272Y-18163065D01*
X-902204Y-18267467D01*
X-941294Y-18391646D01*
X-1005026Y-18537496D01*
X-1090754Y-18699676D01*
X-1195832Y-18872841D01*
X-1221382Y-18912029D01*
X-1346688Y-19083647D01*
X-1495789Y-19258014D01*
X-1658933Y-19425040D01*
X-1826374Y-19574633D01*
X-1961983Y-19678578D01*
X-2128848Y-19795612D01*
X-1988247Y-19808353D01*
X-1777715Y-19840889D01*
X-1586237Y-19897681D01*
X-1418287Y-19976924D01*
X-1278340Y-20076810D01*
X-1244537Y-20108477D01*
X-1159072Y-20211969D01*
X-1103274Y-20323368D01*
X-1077568Y-20443845D01*
X-1082379Y-20574570D01*
X-1118130Y-20716716D01*
X-1185248Y-20871453D01*
X-1284155Y-21039953D01*
X-1415276Y-21223387D01*
X-1579036Y-21422925D01*
X-1775859Y-21639740D01*
X-1813948Y-21679770D01*
X-1988320Y-21850376D01*
X-2175606Y-22013113D01*
X-2364184Y-22158275D01*
X-2486273Y-22241383D01*
X-2565998Y-22292432D01*
X-2641090Y-22340517D01*
X-2701017Y-22378894D01*
X-2726258Y-22395060D01*
X-2769499Y-22420437D01*
X-2837817Y-22457875D01*
X-2921892Y-22502368D01*
X-3012408Y-22548907D01*
X-3013999Y-22549712D01*
X-3234545Y-22661325D01*
X-6577683Y-22661325D01*
X-6639654Y-22725263D01*
X-6654291Y-22740386D01*
X-6667047Y-22755186D01*
X-6678578Y-22772705D01*
X-6689541Y-22795985D01*
X-6700591Y-22828067D01*
X-6712386Y-22871994D01*
X-6725582Y-22930807D01*
X-6740836Y-23007549D01*
X-6758804Y-23105261D01*
X-6780142Y-23226985D01*
X-6805507Y-23375764D01*
X-6835556Y-23554638D01*
X-6870945Y-23766650D01*
X-6893118Y-23899647D01*
X-6923928Y-24083159D01*
X-6949567Y-24232407D01*
X-6970820Y-24351057D01*
X-6988475Y-24442779D01*
X-7003317Y-24511240D01*
X-7016134Y-24560108D01*
X-7027710Y-24593050D01*
X-7038833Y-24613735D01*
X-7048497Y-24624401D01*
X-7054850Y-24628490D01*
X-7064801Y-24632234D01*
X-7079984Y-24635649D01*
X-7102032Y-24638749D01*
X-7132576Y-24641549D01*
X-7173250Y-24644065D01*
X-7225686Y-24646312D01*
X-7291516Y-24648305D01*
X-7372374Y-24650059D01*
X-7469891Y-24651589D01*
X-7585701Y-24652911D01*
X-7721436Y-24654039D01*
X-7878729Y-24654988D01*
X-8059212Y-24655774D01*
X-8264518Y-24656412D01*
X-8496280Y-24656917D01*
X-8756129Y-24657304D01*
X-9045700Y-24657588D01*
X-9366623Y-24657784D01*
X-9720533Y-24657908D01*
X-10109061Y-24657974D01*
X-10533840Y-24657998D01*
X-10675291Y-24657999D01*
X-14261944Y-24657999D01*
X-14301735Y-24607413D01*
X-14328989Y-24568312D01*
X-14341447Y-24541649D01*
X-14341526Y-24540515D01*
X-14334802Y-24520077D01*
X-14315448Y-24467074D01*
X-14284696Y-24384748D01*
X-14279968Y-24372221D01*
X-13995948Y-24372221D01*
X-13977023Y-24374150D01*
X-13921341Y-24376001D01*
X-13830545Y-24377766D01*
X-13706274Y-24379436D01*
X-13550170Y-24381004D01*
X-13363874Y-24382460D01*
X-13149028Y-24383798D01*
X-12907272Y-24385008D01*
X-12640248Y-24386082D01*
X-12349597Y-24387013D01*
X-12036959Y-24387791D01*
X-11703977Y-24388408D01*
X-11352291Y-24388857D01*
X-10983542Y-24389129D01*
X-10616961Y-24389216D01*
X-10259852Y-24389126D01*
X-9913212Y-24388864D01*
X-9578981Y-24388438D01*
X-9259094Y-24387857D01*
X-8955491Y-24387131D01*
X-8670107Y-24386268D01*
X-8404881Y-24385279D01*
X-8161751Y-24384172D01*
X-7942652Y-24382956D01*
X-7749524Y-24381641D01*
X-7584304Y-24380235D01*
X-7448928Y-24378749D01*
X-7345335Y-24377191D01*
X-7275462Y-24375570D01*
X-7241246Y-24373895D01*
X-7237974Y-24373188D01*
X-7234956Y-24350301D01*
X-7226511Y-24295271D01*
X-7213555Y-24213823D01*
X-7197002Y-24111686D01*
X-7177768Y-23994585D01*
X-7169724Y-23946015D01*
X-7148174Y-23814316D01*
X-7127689Y-23685652D01*
X-7109546Y-23568314D01*
X-7095023Y-23470591D01*
X-7085396Y-23400774D01*
X-7084170Y-23390879D01*
X-7073490Y-23304471D01*
X-7062407Y-23218696D01*
X-7053704Y-23154873D01*
X-7040542Y-23062858D01*
X-7194173Y-23168687D01*
X-7281503Y-23225983D01*
X-7377304Y-23284377D01*
X-7464267Y-23333417D01*
X-7484556Y-23343989D01*
X-7551990Y-23379397D01*
X-7589826Y-23403460D01*
X-7603324Y-23420936D01*
X-7597744Y-23436584D01*
X-7592831Y-23441939D01*
X-7572968Y-23480259D01*
X-7564363Y-23533440D01*
X-7564353Y-23535153D01*
X-7567316Y-23576268D01*
X-7579323Y-23607261D01*
X-7605056Y-23629539D01*
X-7649197Y-23644506D01*
X-7716425Y-23653570D01*
X-7811421Y-23658136D01*
X-7938868Y-23659611D01*
X-7978810Y-23659662D01*
X-8099776Y-23659340D01*
X-8188582Y-23657938D01*
X-8251462Y-23654804D01*
X-8294651Y-23649283D01*
X-8324382Y-23640723D01*
X-8346892Y-23628469D01*
X-8358514Y-23619871D01*
X-8396884Y-23574841D01*
X-8409100Y-23533476D01*
X-8393355Y-23480398D01*
X-8354551Y-23435138D01*
X-8305335Y-23411167D01*
X-8293239Y-23410078D01*
X-8273701Y-23406563D01*
X-8278312Y-23392213D01*
X-8309809Y-23361322D01*
X-8321643Y-23350839D01*
X-8385321Y-23276091D01*
X-8444021Y-23172280D01*
X-8494396Y-23048708D01*
X-8533101Y-22914673D01*
X-8556789Y-22779478D01*
X-8562691Y-22680831D01*
X-8562691Y-22607720D01*
X-8838759Y-22593920D01*
X-8909932Y-22591473D01*
X-9014944Y-22589421D01*
X-9149238Y-22587785D01*
X-9308258Y-22586586D01*
X-9487447Y-22585845D01*
X-9682249Y-22585584D01*
X-9888106Y-22585824D01*
X-10100463Y-22586587D01*
X-10237227Y-22587356D01*
X-11359627Y-22594593D01*
X-11521060Y-22739183D01*
X-11757917Y-22941915D01*
X-11980384Y-23113068D01*
X-12187545Y-23252019D01*
X-12378484Y-23358146D01*
X-12525330Y-23421349D01*
X-12592142Y-23448653D01*
X-12627311Y-23471478D01*
X-12636650Y-23493804D01*
X-12636200Y-23497261D01*
X-12639565Y-23566872D01*
X-12675786Y-23620082D01*
X-12710808Y-23640952D01*
X-12746063Y-23650505D01*
X-12799570Y-23656173D01*
X-12876604Y-23658120D01*
X-12982442Y-23656512D01*
X-13090229Y-23652823D01*
X-13209090Y-23647771D01*
X-13295573Y-23642864D01*
X-13355683Y-23637205D01*
X-13395424Y-23629891D01*
X-13420801Y-23620023D01*
X-13437819Y-23606700D01*
X-13443983Y-23599781D01*
X-13474210Y-23542364D01*
X-13466197Y-23488033D01*
X-13435563Y-23449223D01*
X-13408396Y-23429426D01*
X-13372727Y-23417542D01*
X-13318824Y-23411713D01*
X-13236958Y-23410083D01*
X-13230384Y-23410078D01*
X-13067222Y-23410078D01*
X-13116620Y-23357281D01*
X-13189047Y-23252008D01*
X-13237078Y-23117100D01*
X-13260707Y-22952574D01*
X-13260240Y-22836022D01*
X-12975085Y-22836022D01*
X-12968402Y-22949972D01*
X-12951056Y-23048293D01*
X-12924407Y-23124761D01*
X-12889815Y-23173151D01*
X-12866347Y-23185979D01*
X-12826970Y-23194011D01*
X-12789329Y-23193475D01*
X-12741043Y-23182694D01*
X-12669731Y-23159987D01*
X-12666374Y-23158857D01*
X-12551135Y-23111128D01*
X-12416615Y-23040556D01*
X-12270270Y-22951858D01*
X-12119558Y-22849750D01*
X-11971935Y-22738948D01*
X-11871151Y-22655923D01*
X-11772924Y-22571458D01*
X-8279825Y-22571458D01*
X-8268193Y-22707586D01*
X-8244713Y-22872201D01*
X-8205244Y-23002272D01*
X-8149573Y-23098259D01*
X-8077490Y-23160626D01*
X-8055551Y-23171602D01*
X-8008679Y-23189413D01*
X-7966980Y-23195968D01*
X-7918512Y-23190748D01*
X-7851329Y-23173234D01*
X-7811160Y-23161003D01*
X-7678967Y-23108836D01*
X-7528439Y-23029715D01*
X-7365060Y-22926805D01*
X-7203748Y-22810504D01*
X-7116748Y-22743942D01*
X-7055381Y-22696483D01*
X-7014796Y-22663885D01*
X-6990139Y-22641910D01*
X-6976557Y-22626316D01*
X-6969198Y-22612863D01*
X-6964915Y-22601823D01*
X-6964434Y-22589224D01*
X-6977520Y-22579858D01*
X-7009640Y-22572779D01*
X-7066259Y-22567037D01*
X-7152845Y-22561685D01*
X-7213925Y-22558626D01*
X-7518599Y-22548369D01*
X-7800570Y-22547694D01*
X-8053130Y-22556599D01*
X-8090079Y-22558894D01*
X-8279825Y-22571458D01*
X-11772924Y-22571458D01*
X-11771827Y-22570515D01*
X-12117405Y-22556665D01*
X-12252369Y-22552718D01*
X-12396312Y-22550980D01*
X-12535814Y-22551456D01*
X-12657456Y-22554151D01*
X-12709684Y-22556458D01*
X-12956385Y-22570102D01*
X-12969744Y-22712669D01*
X-12975085Y-22836022D01*
X-13260240Y-22836022D01*
X-13259930Y-22758451D01*
X-13258868Y-22742419D01*
X-13253872Y-22654969D01*
X-13253950Y-22600495D01*
X-13259424Y-22573872D01*
X-13269698Y-22569632D01*
X-13284695Y-22589301D01*
X-13310643Y-22638421D01*
X-13344522Y-22710680D01*
X-13383311Y-22799763D01*
X-13406027Y-22854585D01*
X-13447718Y-22957791D01*
X-13496212Y-23079150D01*
X-13549816Y-23214311D01*
X-13606840Y-23358925D01*
X-13665593Y-23508641D01*
X-13724384Y-23659109D01*
X-13781522Y-23805979D01*
X-13835316Y-23944900D01*
X-13884075Y-24071522D01*
X-13926108Y-24181496D01*
X-13959725Y-24270471D01*
X-13983234Y-24334096D01*
X-13994944Y-24368022D01*
X-13995948Y-24372221D01*
X-14279968Y-24372221D01*
X-14243778Y-24276343D01*
X-14193924Y-24145101D01*
G37*
G36*
X-11253467Y-23909206D02*
G01*
X-10876772Y-23909246D01*
X-10843075Y-23909246D01*
X-10470173Y-23909253D01*
X-10133759Y-23909293D01*
X-9831925Y-23909393D01*
X-9562761Y-23909579D01*
X-9324359Y-23909879D01*
X-9114808Y-23910320D01*
X-8932201Y-23910930D01*
X-8774627Y-23911734D01*
X-8640178Y-23912761D01*
X-8526945Y-23914038D01*
X-8433019Y-23915591D01*
X-8356490Y-23917448D01*
X-8295450Y-23919636D01*
X-8247988Y-23922181D01*
X-8212198Y-23925112D01*
X-8186168Y-23928456D01*
X-8167990Y-23932238D01*
X-8155755Y-23936487D01*
X-8147554Y-23941230D01*
X-8141478Y-23946493D01*
X-8140317Y-23947644D01*
X-8111553Y-23989438D01*
X-8101920Y-24024439D01*
X-8114950Y-24066233D01*
X-8140317Y-24101234D01*
X-8146193Y-24106608D01*
X-8153800Y-24111456D01*
X-8165049Y-24115804D01*
X-8181848Y-24119681D01*
X-8206105Y-24123112D01*
X-8239731Y-24126126D01*
X-8284634Y-24128749D01*
X-8342724Y-24131008D01*
X-8415909Y-24132931D01*
X-8506099Y-24134544D01*
X-8615203Y-24135875D01*
X-8745129Y-24136951D01*
X-8897787Y-24137800D01*
X-9075086Y-24138447D01*
X-9278936Y-24138921D01*
X-9511244Y-24139247D01*
X-9773921Y-24139455D01*
X-10068875Y-24139570D01*
X-10398015Y-24139620D01*
X-10763252Y-24139632D01*
X-10843075Y-24139632D01*
X-11219170Y-24139599D01*
X-11558738Y-24139487D01*
X-11863647Y-24139276D01*
X-12135767Y-24138944D01*
X-12376969Y-24138471D01*
X-12589120Y-24137836D01*
X-12774091Y-24137019D01*
X-12933752Y-24135999D01*
X-13069972Y-24134756D01*
X-13184620Y-24133268D01*
X-13279567Y-24131515D01*
X-13356681Y-24129477D01*
X-13417833Y-24127133D01*
X-13464891Y-24124462D01*
X-13499726Y-24121443D01*
X-13524207Y-24118056D01*
X-13540204Y-24114281D01*
X-13549586Y-24110096D01*
X-13550104Y-24109745D01*
X-13586327Y-24062413D01*
X-13592774Y-24024439D01*
X-13593610Y-24008525D01*
X-13594889Y-23994143D01*
X-13594770Y-23981215D01*
X-13591411Y-23969664D01*
X-13582969Y-23959413D01*
X-13567602Y-23950384D01*
X-13543468Y-23942501D01*
X-13508725Y-23935687D01*
X-13461531Y-23929863D01*
X-13400044Y-23924954D01*
X-13322421Y-23920882D01*
X-13226820Y-23917569D01*
X-13111399Y-23914939D01*
X-12974317Y-23912914D01*
X-12813730Y-23911417D01*
X-12627798Y-23910371D01*
X-12414677Y-23909699D01*
X-12172525Y-23909324D01*
X-11899501Y-23909168D01*
X-11593762Y-23909155D01*
X-11253467Y-23909206D01*
G37*
G36*
X-8220862Y-15687401D02*
G01*
X-8084291Y-15725046D01*
X-7951030Y-15796587D01*
X-7855490Y-15873459D01*
X-7745840Y-16001603D01*
X-7662474Y-16153831D01*
X-7607820Y-16324137D01*
X-7584306Y-16506517D01*
X-7583552Y-16545961D01*
X-7599320Y-16743053D01*
X-7647036Y-16919557D01*
X-7727323Y-17077086D01*
X-7840801Y-17217253D01*
X-7842736Y-17219209D01*
X-7945182Y-17308519D01*
X-8049492Y-17367481D01*
X-8167025Y-17400986D01*
X-8293907Y-17413431D01*
X-8420411Y-17412302D01*
X-8511072Y-17398005D01*
X-8528851Y-17392109D01*
X-8673803Y-17316714D01*
X-8798221Y-17211384D01*
X-8899707Y-17080030D01*
X-8975859Y-16926562D01*
X-9024280Y-16754892D01*
X-9042570Y-16568931D01*
X-9042660Y-16554647D01*
X-9028019Y-16374298D01*
X-8986343Y-16210431D01*
X-8921004Y-16064982D01*
X-8835373Y-15939886D01*
X-8732823Y-15837076D01*
X-8616725Y-15758488D01*
X-8490451Y-15706057D01*
X-8357373Y-15681716D01*
X-8220862Y-15687401D01*
G37*
%TD*%
D15*
%TO.C,Reset*%
X122442Y-8731250D03*
D16*
X122442Y-13811250D03*
%TD*%
D17*
%TO.C,MX2*%
X8332024Y500000D03*
D18*
X13412024Y500000D03*
D17*
X18492024Y500000D03*
%TD*%
%TO.C,MX4*%
X37542024Y19550000D03*
X27382024Y19550000D03*
D18*
X32462024Y19550000D03*
%TD*%
%TO.C,MX5*%
X32462024Y500000D03*
D17*
X27382024Y500000D03*
X37542024Y500000D03*
%TD*%
D18*
%TO.C,MX3*%
X13412024Y-18550000D03*
D17*
X8332024Y-18550000D03*
X18492024Y-18550000D03*
%TD*%
D18*
%TO.C,MX7*%
X51512024Y19550000D03*
D17*
X56592024Y19550000D03*
X46432024Y19550000D03*
%TD*%
%TO.C,MX1*%
X8332024Y19550000D03*
D18*
X13412024Y19550000D03*
D17*
X18492024Y19550000D03*
%TD*%
%TO.C,MX6*%
X27382024Y-18550000D03*
X37542024Y-18550000D03*
D18*
X32462024Y-18550000D03*
%TD*%
D17*
%TO.C,MX8*%
X56592024Y500000D03*
D18*
X51512024Y500000D03*
D17*
X46432024Y500000D03*
%TD*%
%TO.C,MX9*%
X56592024Y-18550000D03*
D18*
X51512024Y-18550000D03*
D17*
X46432024Y-18550000D03*
%TD*%
M02*
