%TF.GenerationSoftware,KiCad,Pcbnew,(6.0.8)*%
%TF.CreationDate,2022-10-26T00:32:36-07:00*%
%TF.ProjectId,zotzotzotv3,7a6f747a-6f74-47a6-9f74-76332e6b6963,rev?*%
%TF.SameCoordinates,Original*%
%TF.FileFunction,Soldermask,Top*%
%TF.FilePolarity,Negative*%
%FSLAX46Y46*%
G04 Gerber Fmt 4.6, Leading zero omitted, Abs format (unit mm)*
G04 Created by KiCad (PCBNEW (6.0.8)) date 2022-10-26 00:32:36*
%MOMM*%
%LPD*%
G01*
G04 APERTURE LIST*
%ADD10C,1.750000*%
%ADD11C,3.987800*%
G04 APERTURE END LIST*
%TO.C,G\u002A\u002A\u002A*%
G36*
X-8220862Y-15287401D02*
G01*
X-8084291Y-15325046D01*
X-7951030Y-15396587D01*
X-7855490Y-15473459D01*
X-7745840Y-15601603D01*
X-7662474Y-15753831D01*
X-7607820Y-15924137D01*
X-7584306Y-16106517D01*
X-7583552Y-16145961D01*
X-7599320Y-16343053D01*
X-7647036Y-16519557D01*
X-7727323Y-16677086D01*
X-7840801Y-16817253D01*
X-7842736Y-16819209D01*
X-7945182Y-16908519D01*
X-8049492Y-16967481D01*
X-8167025Y-17000986D01*
X-8293907Y-17013431D01*
X-8420411Y-17012302D01*
X-8511072Y-16998005D01*
X-8528851Y-16992109D01*
X-8673803Y-16916714D01*
X-8798221Y-16811384D01*
X-8899707Y-16680030D01*
X-8975859Y-16526562D01*
X-9024280Y-16354892D01*
X-9042570Y-16168931D01*
X-9042660Y-16154647D01*
X-9028019Y-15974298D01*
X-8986343Y-15810431D01*
X-8921004Y-15664982D01*
X-8835373Y-15539886D01*
X-8732823Y-15437076D01*
X-8616725Y-15358488D01*
X-8490451Y-15306057D01*
X-8357373Y-15281716D01*
X-8220862Y-15287401D01*
G37*
%TD*%
D10*
%TO.C,MX2*%
X8332024Y500000D03*
D11*
X13412024Y500000D03*
D10*
X18492024Y500000D03*
%TD*%
%TO.C,MX4*%
X37542024Y19550000D03*
X27382024Y19550000D03*
D11*
X32462024Y19550000D03*
%TD*%
%TO.C,MX5*%
X32462024Y500000D03*
D10*
X27382024Y500000D03*
X37542024Y500000D03*
%TD*%
D11*
%TO.C,MX3*%
X13412024Y-18550000D03*
D10*
X8332024Y-18550000D03*
X18492024Y-18550000D03*
%TD*%
D11*
%TO.C,MX7*%
X51512024Y19550000D03*
D10*
X56592024Y19550000D03*
X46432024Y19550000D03*
%TD*%
%TO.C,MX1*%
X8332024Y19550000D03*
D11*
X13412024Y19550000D03*
D10*
X18492024Y19550000D03*
%TD*%
%TO.C,MX6*%
X27382024Y-18550000D03*
X37542024Y-18550000D03*
D11*
X32462024Y-18550000D03*
%TD*%
D10*
%TO.C,MX8*%
X56592024Y500000D03*
D11*
X51512024Y500000D03*
D10*
X46432024Y500000D03*
%TD*%
%TO.C,MX9*%
X56592024Y-18550000D03*
D11*
X51512024Y-18550000D03*
D10*
X46432024Y-18550000D03*
%TD*%
M02*
